<svg xmlns="http://www.w3.org/2000/svg" xmlns:xlink="http://www.w3.org/1999/xlink" xmlns:lucid="lucid" width="1540" height="789.33"><g transform="translate(120 49.33333333333337)" lucid:page-tab-id="0_0"><path d="M-1806.4-1259.2h3676.8v2582.4h-3676.8z" fill="#fff"/><path d="M44.9 262.2c-4.2 0-7.2-3.14-7.2-7.1 0-3.96 3-7.1 7.2-7.1 3.88 0 7.17 3.14 7.17 7.1 0 3.96-3.3 7.1-7.18 7.1zm0-12.26c-3 0-5.1 2.2-5.1 5.16 0 2.95 2.1 5.2 5.1 5.2 2.68 0 5.07-2.25 5.07-5.2 0-2.9-2.4-5.16-5.08-5.16zM53.86 251.97h2.1v.96c.9-.73 1.8-1.1 3-1.1 2.68 0 5.08 2.26 5.08 5.16 0 2.84-2.4 5.15-5.1 5.15-1.2 0-2.08-.32-2.98-.97v4.88h-2.1zm2.1 2.76v4.52c.6.73 1.5 1.2 2.7 1.2 2.1 0 3.28-1.48 3.28-3.46 0-1.95-1.2-3.47-3.3-3.47-1.2 0-2.08.42-2.68 1.2zM70.62 262.2c-3 0-5.1-2.3-5.1-5.2 0-2.9 2.1-5.17 4.8-5.17 3 0 5.1 2.3 5.1 5.25v.55h-8.1c.3 1.66 1.8 2.9 3.6 2.86.9.04 1.8-.3 2.4-.9l1.2 1.26c-1.2.92-2.4 1.33-3.9 1.33zm-3.3-6.04h6c-.3-1.57-1.5-2.67-3-2.67s-2.7 1.05-3 2.66zM77.2 251.97H79v1c.9-.82 2.1-1.23 3.3-1.2 2.1 0 3.88 1.63 3.88 3.93v6.26h-2.1v-5.94c0-1.56-.9-2.53-2.4-2.53-1.18 0-2.08.45-2.68 1.28v7.18h-1.8zM88.58 258.28c1.5 1.43 3 2.12 4.78 2.12 1.8 0 3.3-.92 3.3-2.26 0-1.24-.9-1.84-2.7-2.16l-2.4-.42c-2.4-.4-3.88-1.57-3.88-3.55 0-2.38 2.1-3.95 5.1-3.95 2.08 0 3.88.6 5.67 1.84l-1.2 1.6c-1.5-1.14-3-1.7-4.48-1.7-1.8 0-3 .83-3 2.03 0 1.15.6 1.66 2.4 1.98l2.4.33c2.68.46 4.18 1.7 4.18 3.83 0 2.53-2.1 4.23-5.4 4.23-2.38 0-4.47-.84-5.97-2.5zM100.25 248.24l2.1-.46v5.2c.9-.83 1.8-1.24 2.98-1.2 2.4 0 3.9 1.62 3.9 3.92v6.26h-1.8v-5.94c0-1.56-1.2-2.53-2.7-2.53-.9 0-1.8.45-2.4 1.28v7.18h-2.08zM111.32 249.16c0-.7.6-1.2 1.2-1.25.6 0 1.2.52 1.2 1.2 0 .66-.3 1.26-1.2 1.26-.6 0-1.2-.56-1.2-1.2zm2.1 12.8h-1.8v-10h1.8zM117.3 251.97v-1.48c0-2.13 1.2-3.23 3.3-3.23.6-.05.9.05 1.5.14v1.7c-.3-.08-.9-.17-1.2-.13-1.2 0-1.5.46-1.5 1.52v1.47h2.7v1.66h-2.7v8.33h-2.1v-8.33h-2.4v-1.66zM125.08 253.63h-2.1v-1.66h2.1v-2.54l2.1-.46v3h2.7v1.66h-2.7v5.43c0 1 .3 1.38 1.5 1.38.3.05.9-.04 1.2-.23v1.67c-.6.2-1.2.28-1.8.28-1.8 0-3-.92-3-2.63zM146.93 258.92l.9 1.02c-1.5 1.52-3.3 2.3-5.4 2.25-3.88.1-7.17-3.05-7.17-6.96 0-3.92 3-7.14 7.18-7.23 2.1 0 4.2.84 5.4 2.3l-.9 1.07c-1.2-1.3-2.7-1.94-4.5-1.94-3 0-5.4 2.5-5.4 5.72 0 3.22 2.4 5.66 5.4 5.66 1.8 0 3.6-.68 4.5-1.88zM154.1 251.97c2.7 0 5.1 2.2 5.1 5.06 0 2.86-2.4 5.16-5.1 5.16-2.68 0-5.08-2.26-5.08-5.17 0-2.85 2.4-5.06 5.1-5.06zm3.6 5.06c0-2.1-1.5-3.77-3.6-3.77-2.08 0-3.58 1.66-3.58 3.77 0 2.17 1.5 3.87 3.6 3.87s3.58-1.7 3.58-3.87zM161.3 252.15h1.5v1.15c.6-.92 1.78-1.33 2.98-1.33 2.1 0 3.9 1.52 3.9 3.77V262h-1.5v-5.93c0-1.75-1.2-2.86-2.7-2.86-1.2 0-2.4.56-2.7 1.53v7.23h-1.5zM172.66 253.4h-2.1v-1.25h2.1v-2.5l1.5-.4v2.9h3v1.25h-3v6.03c0 1.06.6 1.47 1.5 1.47.6 0 1.2-.1 1.5-.27v1.3c-.6.17-1.2.26-1.8.22-1.5 0-2.7-.83-2.7-2.35zM178.35 259.2c0-1.84 1.5-3 3.9-3 .9 0 1.78.2 2.68.65v-1.3c0-1.56-.9-2.38-2.4-2.38-1.2 0-2.1.27-3.28.87l-.3-1.1c1.2-.7 2.4-1.02 3.6-1.02 2.38 0 3.88 1.25 3.88 3.46v6.58h-1.5V261c-.9.83-1.8 1.2-3 1.2-2.08 0-3.58-1.25-3.58-3zm3.9 1.84c1.2 0 2.08-.37 2.68-1.15v-1.85c-.6-.55-1.5-.8-2.7-.8-1.5 0-2.68.75-2.68 1.9 0 1.1 1.2 1.9 2.7 1.9zM188.52 249.25c0-.5.6-.97 1.2-.97s.9.42.9.97-.3 1-.9 1c-.6 0-1.2-.45-1.2-1zm1.8 12.7h-1.5v-9.8h1.5zM192.7 252.15h1.5v1.15c.9-.92 1.8-1.33 3.3-1.33 2.1 0 3.6 1.52 3.6 3.77V262h-1.2v-5.93c0-1.75-1.2-2.86-3-2.86-.9 0-2.1.56-2.7 1.53v7.23h-1.5zM208.27 262.2c-2.7 0-5.08-2.22-5.08-4.98v-.14c0-2.86 2.08-5.07 4.77-5.07 2.7 0 4.8 2.22 4.8 5.08v.46h-8.1c.3 1.94 1.8 3.36 3.6 3.36 1.2 0 2.1-.32 2.7-.92l.9.97c-.9.88-2.1 1.24-3.6 1.24zm-3.6-5.86h6.6c-.3-1.75-1.5-3.08-3.3-3.08-1.8 0-3 1.3-3.3 3.08zM214.86 252.15h1.2v1.38c.6-1 1.8-1.6 3-1.6.3 0 .58.04.88.13v1.34c-.3-.14-.6-.2-1.2-.2-1.2 0-2.1.75-2.7 2.04v6.72h-1.18zM225.93 248.24h5.98c2.7 0 4.5 1.56 4.5 3.96s-1.8 4-4.5 4h-4.47v5.76h-1.5zm1.5 1.33v5.3h4.48c1.8 0 3-1 3-2.63 0-1.65-1.2-2.62-3-2.62zM240 261.96h-1.5v-13.72l1.5-.37zM241.8 259.2c0-1.84 1.5-3 3.88-3 1.2 0 2.1.2 3 .65v-1.3c0-1.56-.9-2.38-2.7-2.38-.9 0-1.8.27-3 .87l-.6-1.1c1.5-.7 2.7-1.02 3.9-1.02 2.4 0 3.9 1.25 3.9 3.46v6.58h-1.5V261c-.9.83-1.8 1.2-3.3 1.15-2.1.04-3.6-1.2-3.6-2.95zm3.88 1.84c1.2 0 2.1-.37 3-1.15v-1.85c-.9-.55-1.8-.8-2.7-.8-1.8 0-2.7.75-2.7 1.9 0 1.1.9 1.9 2.4 1.9zM253.46 253.4h-2.1v-1.25h2.1v-2.5l1.2-.4v2.9h3v1.25h-3v6.03c0 1.06.6 1.47 1.8 1.47.3 0 .9-.1 1.2-.27v1.3c-.6.17-.9.26-1.5.22-1.8 0-2.7-.83-2.7-2.35zM260.94 252.15v-1.9c0-1.92 1.2-2.98 3-2.98.6 0 .9.05 1.5.18v1.3c-.6-.14-.9-.2-1.2-.2-1.2 0-1.8.56-1.8 1.76v1.85h3v1.25h-3v8.56h-1.5v-8.56h-2.4v-1.25zM270.82 251.97c3 0 5.08 2.2 5.08 5.06 0 2.86-2.1 5.16-5.08 5.16-2.7 0-4.8-2.26-4.8-5.17 0-2.85 2.1-5.06 4.8-5.06zm3.6 5.06c0-2.1-1.5-3.77-3.6-3.77-1.8 0-3.6 1.66-3.6 3.77 0 2.17 1.8 3.87 3.6 3.87 2.1 0 3.6-1.7 3.6-3.87zM278 252.15h1.5v1.38c.6-1 1.5-1.6 2.7-1.6.3 0 .6.04.88.13v1.34c-.3-.14-.6-.2-.9-.2-1.2 0-2.1.75-2.7 2.04v6.72H278zM284.88 252.15h1.5v1.06c.6-.86 1.5-1.28 2.7-1.23 1.5-.05 2.38.6 3.28 1.75.6-1.15 1.8-1.84 3.3-1.75 2.1 0 3.58 1.52 3.58 3.77V262h-1.5v-5.93c0-1.75-.9-2.86-2.4-2.86-1.18 0-2.08.56-2.68 1.62V262h-1.5v-5.93c0-1.75-.9-2.86-2.4-2.86-1.2 0-1.8.52-2.38 1.44v7.32h-1.5zM104.74 238.33c0 2.2 1.5 3.32 3.9 3.32.88 0 1.48-.1 2.38-.32v-2.58c-.6.14-.9.23-1.5.18-.9 0-1.5-.27-1.5-1.24v-4.02h3V231h-3v-3.4l-3 .7v2.7h-2.38v2.68h2.1zm-9.88.05c0-.7.6-1.06 1.8-1.06.6.05 1.2.1 1.8.28v1.33c-.6.37-1.2.5-1.8.5-1.2 0-1.8-.4-1.8-1.05m.9 3.32c1.2 0 2.1-.23 3-.83v.64h3.28v-6.7c0-2.6-1.8-3.98-4.8-3.98-1.48 0-2.98.37-4.77 1.16l1.2 2.35c1.2-.5 2.1-.83 3-.83 1.48 0 2.08.5 2.08 1.56v.5c-.9-.22-1.5-.27-2.4-.27-2.7 0-4.18 1.1-4.18 3.13 0 1.84 1.5 3.27 3.6 3.27m-17.37-.2h3.3v-5.42h5.98v5.43h3.3v-13.9h-3.3v5.34h-6v-5.34H78.4zm-13.16-5.24c0-1.52 1.2-2.67 3-2.67.6 0 1.48.22 2.08.82v3.64c-.6.6-1.5.87-2.1.87-1.8 0-2.98-1.15-2.98-2.67m5.08 5.25h3.3v-14.6l-3.3.7v3.96c-.9-.5-1.8-.7-2.7-.7-2.98 0-5.38 2.36-5.38 5.4v.1c0 2.94 2.4 5.3 5.4 5.3.9 0 1.78-.3 2.68-.93zm-14.66-8.05c1.2 0 2.1.65 2.4 1.66h-4.5c.3-1.05 1.2-1.65 2.1-1.65m-5.4 2.8c0 3.1 2.7 5.5 5.7 5.5 1.8 0 3.3-.52 4.5-1.62l-2.1-1.9c-.6.52-1.2.8-2.1.8-1.2.04-2.1-.6-2.7-1.66h7.5v-.8c0-3.35-2.1-5.75-5.1-5.75h-.3c-3 0-5.4 2.45-5.4 5.44m-5.37-5.76c1.18 0 1.78.74 1.78 1.6 0 .84-.6 1.58-1.8 1.58H41.3v-3.18zm-6.9 11h3.3v-5.06H44l2.68 5.07h3.9l-3.3-5.56c1.8-.65 2.7-2.17 2.7-3.92 0-2.48-1.8-4.42-4.8-4.42H38zM30.82 234.28v-.42-.1-.45l-2.4.9c-.3-1.9-.6-3.5-1.5-5.22l4.5-1.6c-.3-.65-.6-1.16-.9-1.7-.3-.15-.3-.3-.3-.38l-2.1.73c-2.98-4.23-7.77-6.4-12.86-5.98-8.08.64-13.76 7.55-13.17 15.47l3-1.15-.9.37v.5c0 .7 0 1.25.3 1.9l4.78-1.7c0-.56-.3-.98-.3-1.53v-.45-.05-.46l-2.1.74c.6-5.1 5.1-8.98 10.18-8.6 2.4.17 4.2 1.1 5.98 2.8l2.7-1.02-.6.23c0 .13.3.27.3.36 0 .14.3.23.3.37.3.42.6.78.9 1.24l-4.5 1.66c.9 1.66 1.2 3.32 1.2 5.25l4.8-1.75-2.4.92v.6c-.3.14-.3.28-.3.42v.1c0 .36 0 .68-.3 1 0 .42-.3.74-.3 1.1-2.1 4.7-7.78 6.73-12.57 4.52-.3-.14-.6-.33-.9-.5-.3-.24-.6-.43-.9-.66v-.04c-.3-.1-.3-.2-.3-.28l-.3-.1c0-.1 0-.22-.3-.36l-2.4.87c-1.2-1.38-2.08-2.9-2.38-4.8L0 238.8c.6 1.84 1.2 3.3 2.4 4.88l2.1-.88c.3.14.3.23.3.37l.3.1v.3l.3.06c0 .14 0 .23.3.32v.05c0 .1 0 .23.28.32v.05c1.2 1.38 2.7 2.3 4.2 3.13 7.18 3.32 15.85.23 19.15-7 .9-2.03 1.5-3.92 1.5-6.17z" stroke="#000" stroke-opacity="0" stroke-width=".19"/><path d="M-20 200h1340v440H-20z" stroke="#000" stroke-width="2" fill="#e5e5e5" fill-opacity=".6"/><path d="M-100-29.33h1500V720H-100z" stroke="#248814" stroke-width="2" fill="#fff" fill-opacity="0"/><path d="M-100-29.33h56v56h-56v-56z" stroke="#fff" stroke-opacity="0" fill="#248814"/><path d="M-68.24-1.03h-1.18v-1.1c-.12-1.73-1.48-3.08-3.2-3.2-1.9-.13-3.54 1.3-3.67 3.2v1.07h-1.17c-.44 0-.8.36-.8.8v6.12c0 .45.36.8.8.8h9.23c.44 0 .8-.35.8-.8V-.22c0-.45-.36-.8-.8-.8zm-6.4-1.07c.1-1.02 1-1.76 2-1.67.9.1 1.58.77 1.67 1.67v1.07h-3.72zM-69 5h-7.67V.56h7.63z" stroke="#fff" stroke-opacity="0" fill="#fff"/><path d="M-57.73-3.6c-.08-2.43-1.58-4.46-3.87-5.3-1.58-.45-3.16-.13-4.4.92-.68-1.46-1.47-2.6-2.6-3.76-3.24-3.35-7.94-4.3-12.18-2.4-4.04 1.9-6.4 5.64-6.54 10.06v.7c-3.4.97-5.66 4.07-5.5 7.64v.64c.4 4.28 3.92 7.52 8.2 7.46h26s7.42-.63 7.42-8.1c.04-3.9-2.66-7.2-6.53-7.85zm-.96 14.4h-25.9c-3.47.05-6.3-2.53-6.6-5.96v-.52c-.15-3.05 1.93-5.7 4.92-6.32.38-.1.63-.46.6-.87-.06-.42-.06-.75 0-1.16.07-3.8 2.1-6.94 5.52-8.6 1.25-.57 2.4-.82 3.83-.84 2.62.08 4.87 1.04 6.7 2.93 1.25 1.3 2.04 2.6 2.62 4.32.03.13.1.27.24.35.37.28.87.2 1.12-.16.83-1.18 2.25-1.68 3.62-1.3 1.8.72 2.87 2.4 2.83 4.32-.07.4.22.8.64.9 3.57.35 6.2 3.54 5.82 7.1-.3 3.13-2.7 5.52-5.82 5.85z" stroke="#fff" stroke-opacity="0" fill="#fff"/><use xlink:href="#a" transform="matrix(1,0,0,1,-29,-9.333333333333371) translate(0 14.4)"/><path d="M-60 40h1420v640H-60z" fill="#248814" fill-opacity=".13"/><path d="M-60 40h56v56h-56V40z" stroke="#fff" stroke-opacity="0" fill="#248814"/><path d="M-16.62 62.18c-.15-.17-.34-.25-.56-.25h-5.15v-5.58c-.03-2.54-.96-4.7-2.84-6.4-1.9-1.84-4.15-2.75-6.77-2.75-2.65 0-4.9.83-6.8 2.62-1.9 1.7-2.87 3.87-2.9 6.4v5.66h-5.15c-.24 0-.43.1-.58.25-.16.17-.22.34-.22.6V88c0 .43.34.8.8.8h29.6c.46 0 .8-.37.8-.8V62.73c0-.2-.06-.38-.22-.54zm-23.46-5.9c.03-2.13.8-3.88 2.37-5.3 1.6-1.5 3.52-2.2 5.73-2.2 2.22 0 4.12.75 5.7 2.25 1.54 1.4 2.32 3.2 2.32 5.32v5.58H-40.1zm22.1 30.94h-28.03v-23.7h28z" stroke="#fff" stroke-opacity="0" fill="#fff"/><path d="M-32.8 77.3v6.25h1.6v-6.23c2.13-.4 3.62-2.2 3.63-4.35 0-2.43-1.97-4.4-4.4-4.43-2.2-.03-4.06 1.5-4.44 3.68-.42 2.4 1.2 4.68 3.6 5.1zm.82-7.15c.78 0 1.44.27 2 .82.54.56.82 1.22.8 2 .03 1.55-1.2 2.8-2.74 2.82h-.06c-1.56.1-2.92-1.06-3.04-2.62-.12-1.56 1.05-2.93 2.6-3.03.16-.02.28-.02.44 0z" stroke="#fff" stroke-opacity="0" fill="#fff"/><use xlink:href="#b" transform="matrix(1,0,0,1,11,60) translate(0 14.4)"/><use xlink:href="#c" transform="matrix(1,0,0,1,11,60) translate(53.900000000000006 14.4)"/><use xlink:href="#d" transform="matrix(1,0,0,1,11,60) translate(0 36)"/><use xlink:href="#e" transform="matrix(1,0,0,1,11,60) translate(10.95 36)"/><use xlink:href="#d" transform="matrix(1,0,0,1,11,60) translate(0 57.6)"/><use xlink:href="#f" transform="matrix(1,0,0,1,11,60) translate(10.95 57.6)"/><use xlink:href="#d" transform="matrix(1,0,0,1,11,60) translate(0 79.20000000000002)"/><use xlink:href="#g" transform="matrix(1,0,0,1,11,60) translate(10.95 79.20000000000002)"/><path d="M1191.14 128.48V116.2l-3.93 7.95h-3.32l-3.9-7.95v12.28h-3.35v-17.75h4.2l4.83 10.1 4.88-10.1h4.1v17.75zM1198.03 125c1.7.6 3.2.9 5 .98.9.06 1.7-.18 2.4-.7.6-.6.88-1.3.82-2.1.07-.8-.22-1.52-.82-2.04-.8-.5-1.6-.73-2.54-.66-1.48.02-2.73.1-4.2.26v-2.4l.46-7.62h10v2.96h-6.78l-.28 4.17c.76-.18 1.4-.25 2.2-.25 1.6-.08 3 .4 4.22 1.47 1.14 1.03 1.7 2.37 1.67 3.94 0 1.1-.26 2.06-.83 3.02-.6.96-1.36 1.6-2.4 2.1-1.18.55-2.3.77-3.63.75-1.9 0-3.5-.33-5.25-1.1zM1220.87 128.5l-.32-1.17c-.56.5-1.12.85-1.8 1.14-.7.28-1.3.4-2.03.42-1.16.05-2.17-.32-3.03-1.08-.8-.77-1.2-1.73-1.15-2.83 0-.8.18-1.48.6-2.16.48-.7 1.07-1.2 1.85-1.52.9-.4 1.74-.56 2.72-.54.96 0 1.77.1 2.72.33v-1.27c.08-.63-.08-1.18-.5-1.67-.55-.35-1.13-.5-1.8-.43-1.65.04-3.05.28-4.62.8v-2.44c.8-.4 1.5-.62 2.37-.78 1-.22 1.83-.3 2.84-.32 1.43-.12 2.68.22 3.84 1.06.92.92 1.34 2.06 1.22 3.34v9.07zm-3.1-2.1c.47-.03.88-.1 1.3-.3.5-.2.88-.44 1.28-.77v-2.23c-.7-.1-1.3-.17-2.02-.17-1.48 0-2.23.6-2.23 1.8v.3c.1.84.83 1.44 1.67 1.36z" stroke="#fff" stroke-opacity="0" fill="#d86613"/><path d="M1232.18 152.18h-64.36V87.82h64.36zm-61.02-3.34h57.68V91.16h-57.68z" stroke="#fff" stroke-opacity="0" fill="#d86613"/><path d="M1177.02 80h3.33v9.48h-3.33V80zM1187.47 80h3.33v9.48h-3.33V80zM1197.93 80h3.34v9.48h-3.34V80zM1208.4 80h3.33v9.48h-3.33V80zM1218.87 80h3.33v9.48h-3.33V80zM1177.02 150.52h3.33V160h-3.33v-9.48zM1187.47 150.52h3.33V160h-3.33v-9.48zM1197.93 150.52h3.34V160h-3.34v-9.48zM1208.4 150.52h3.33V160h-3.33v-9.48zM1218.87 150.52h3.33V160h-3.33v-9.48zM1230.52 97.42h9.48v3.33h-9.48v-3.33zM1230.52 107.87h9.48v3.33h-9.48v-3.33zM1230.52 118.33h9.48v3.34h-9.48v-3.34zM1230.52 128.8h9.48v3.33h-9.48v-3.33zM1230.52 139.25h9.48v3.33h-9.48v-3.33zM1160 97.42h9.48v3.33H1160v-3.33zM1160 107.87h9.48v3.33H1160v-3.33zM1160 118.33h9.48v3.34H1160v-3.34zM1160 128.8h9.48v3.33H1160v-3.33zM1160 139.25h9.48v3.33H1160v-3.33z" stroke="#fff" stroke-opacity="0" fill="#d86613"/><use xlink:href="#h" transform="matrix(1,0,0,1,1130,169) translate(-81.03703703703702 13.407407407407408)"/><path d="M590.58 508.48v-14.66h-5.4v-3.1h14.64v3.1h-5.4v14.66zM602 492.35c.9-.7 1.74-1.18 2.8-1.56 1.03-.36 1.95-.5 3.04-.5 1.46-.06 2.72.4 3.83 1.36 1.02.96 1.52 2.18 1.47 3.58-.03 1.02-.25 1.9-.74 2.8-.7 1.2-1.4 2.17-2.34 3.2-1.1 1.2-2.53 2.62-4.35 4.28h8.17v2.96h-12.34v-2.76c2.22-2.22 3.86-3.95 4.9-5.17.9-.96 1.57-1.85 2.26-2.96.38-.68.58-1.32.62-2.1.03-.58-.16-1.1-.58-1.5-.46-.4-1-.6-1.6-.56-.88 0-1.64.17-2.46.5-1 .4-1.8.83-2.68 1.47z" stroke="#fff" stroke-opacity="0" fill="#d86613"/><path d="M632.18 532.18h-64.36v-64.36h64.36zm-61.02-3.34h57.68v-57.68h-57.68z" stroke="#fff" stroke-opacity="0" fill="#d86613"/><path d="M577.02 460h3.33v9.48h-3.33V460zM587.47 460h3.33v9.48h-3.33V460zM597.93 460h3.34v9.48h-3.34V460zM608.4 460h3.33v9.48h-3.33V460zM618.87 460h3.33v9.48h-3.33V460zM577.02 530.52h3.33V540h-3.33v-9.48zM587.47 530.52h3.33V540h-3.33v-9.48zM597.93 530.52h3.34V540h-3.34v-9.48zM608.4 530.52h3.33V540h-3.33v-9.48zM618.87 530.52h3.33V540h-3.33v-9.48zM630.52 477.42H640v3.33h-9.48v-3.33zM630.52 487.87H640v3.33h-9.48v-3.33zM630.52 498.33H640v3.34h-9.48v-3.34zM630.52 508.8H640v3.33h-9.48v-3.33zM630.52 519.25H640v3.33h-9.48v-3.33zM560 477.42h9.48v3.33H560v-3.33zM560 487.87h9.48v3.33H560v-3.33zM560 498.33h9.48v3.34H560v-3.34zM560 508.8h9.48v3.33H560v-3.33zM560 519.25h9.48v3.33H560v-3.33z" stroke="#fff" stroke-opacity="0" fill="#d86613"/><use xlink:href="#i" transform="matrix(1,0,0,1,530,549) translate(-86.98765432098773 14.222222222222223)"/><path d="M990.58 508.48v-14.66h-5.4v-3.1h14.64v3.1h-5.4v14.66zM1002 492.35c.9-.7 1.74-1.18 2.8-1.56 1.03-.36 1.95-.5 3.04-.5 1.46-.06 2.72.4 3.83 1.36 1.02.96 1.52 2.18 1.47 3.58-.03 1.02-.25 1.9-.74 2.8-.7 1.2-1.4 2.17-2.34 3.2-1.1 1.2-2.53 2.62-4.35 4.28h8.17v2.96h-12.34v-2.76c2.22-2.22 3.86-3.95 4.9-5.17.9-.96 1.57-1.85 2.26-2.96.38-.68.58-1.32.62-2.1.03-.58-.16-1.1-.58-1.5-.46-.4-1-.6-1.6-.56-.88 0-1.64.17-2.46.5-1 .4-1.8.83-2.68 1.47z" stroke="#fff" stroke-opacity="0" fill="#d86613"/><path d="M1032.18 532.18h-64.36v-64.36h64.36zm-61.02-3.34h57.68v-57.68h-57.68z" stroke="#fff" stroke-opacity="0" fill="#d86613"/><path d="M977.02 460h3.33v9.48h-3.33V460zM987.47 460h3.33v9.48h-3.33V460zM997.93 460h3.34v9.48h-3.34V460zM1008.4 460h3.33v9.48h-3.33V460zM1018.87 460h3.33v9.48h-3.33V460zM977.02 530.52h3.33V540h-3.33v-9.48zM987.47 530.52h3.33V540h-3.33v-9.48zM997.93 530.52h3.34V540h-3.34v-9.48zM1008.4 530.52h3.33V540h-3.33v-9.48zM1018.87 530.52h3.33V540h-3.33v-9.48zM1030.52 477.42h9.48v3.33h-9.48v-3.33zM1030.52 487.87h9.48v3.33h-9.48v-3.33zM1030.52 498.33h9.48v3.34h-9.48v-3.34zM1030.52 508.8h9.48v3.33h-9.48v-3.33zM1030.52 519.25h9.48v3.33h-9.48v-3.33zM960 477.42h9.48v3.33H960v-3.33zM960 487.87h9.48v3.33H960v-3.33zM960 498.33h9.48v3.34H960v-3.34zM960 508.8h9.48v3.33H960v-3.33zM960 519.25h9.48v3.33H960v-3.33z" stroke="#fff" stroke-opacity="0" fill="#d86613"/><use xlink:href="#j" transform="matrix(1,0,0,1,930,549) translate(-86.98765432098773 14.222222222222223)"/><path d="M190.58 508.48v-14.66h-5.4v-3.1h14.64v3.1h-5.4v14.66zM202 492.35c.9-.7 1.74-1.18 2.8-1.56 1.03-.36 1.95-.5 3.04-.5 1.46-.06 2.72.4 3.83 1.36 1.03.96 1.52 2.18 1.47 3.58-.03 1.02-.25 1.9-.74 2.8-.7 1.2-1.4 2.17-2.34 3.2-1.1 1.2-2.53 2.62-4.35 4.28h8.17v2.96h-12.34v-2.76c2.22-2.22 3.86-3.95 4.9-5.17.9-.96 1.57-1.85 2.26-2.96.38-.68.58-1.32.62-2.1.03-.58-.16-1.1-.58-1.5-.46-.4-1-.6-1.6-.56-.88 0-1.64.17-2.46.5-1 .4-1.8.83-2.68 1.47z" stroke="#fff" stroke-opacity="0" fill="#d86613"/><path d="M232.18 532.18h-64.36v-64.36h64.36zm-61.02-3.34h57.68v-57.68h-57.68z" stroke="#fff" stroke-opacity="0" fill="#d86613"/><path d="M177.02 460h3.33v9.48h-3.33V460zM187.47 460h3.33v9.48h-3.33V460zM197.93 460h3.34v9.48h-3.34V460zM208.4 460h3.33v9.48h-3.33V460zM218.87 460h3.33v9.48h-3.33V460zM177.02 530.52h3.33V540h-3.33v-9.48zM187.47 530.52h3.33V540h-3.33v-9.48zM197.93 530.52h3.34V540h-3.34v-9.48zM208.4 530.52h3.33V540h-3.33v-9.48zM218.87 530.52h3.33V540h-3.33v-9.48zM230.52 477.42H240v3.33h-9.48v-3.33zM230.52 487.87H240v3.33h-9.48v-3.33zM230.52 498.33H240v3.34h-9.48v-3.34zM230.52 508.8H240v3.33h-9.48v-3.33zM230.52 519.25H240v3.33h-9.48v-3.33zM160 477.42h9.48v3.33H160v-3.33zM160 487.87h9.48v3.33H160v-3.33zM160 498.33h9.48v3.34H160v-3.34zM160 508.8h9.48v3.33H160v-3.33zM160 519.25h9.48v3.33H160v-3.33z" stroke="#fff" stroke-opacity="0" fill="#d86613"/><use xlink:href="#k" transform="matrix(1,0,0,1,130,549) translate(-86.98765432098773 14.222222222222223)"/><path d="M1200 161v10.13m0 10.12v2.03m0 10.12v20.26m0 10.12v2.03m0 10.14v20.25m0 10.12v2.02m0 10.13v20.25m-8.85 1.28h-2.02m-10.13 0h-20.25m-10.13 0h-2.02m-10.13 0h-20.25m-10.13 0h-2.03m-10.13 0h-20.25m-10.14 0h-2.02m-10.13 0h-20.24m-10.13 0H1019m-10.12 0h-20.26m-10.12 0h-2.03m-10.12 0H946.1m-10.13 0h-2.03m-10.12 0h-20.26m-10.12 0h-2.03m-10.12 0h-20.25m-10.13 0h-2.02m-10.13 0H818.5m-10.13 0h-2.02m-10.13 0h-20.25m-10.13 0h-2.02m-10.13 0h-20.26m-10.13 0h-2m-10.14 0H690.9m-10.12 0h-2.03m-10.12 0H658.5" stroke="#666" stroke-width="2" fill="none"/><path d="M1201 161.03h-2V160h2z" fill="#666"/><path d="M643.24 300l14.26-4.64v9.28z" stroke="#666" stroke-width="2" fill="#666"/><path d="M1200 161v10.4m0 10.4v2.08m0 10.4v20.8m0 10.4v2.08m0 10.4v20.8m0 10.4v2.08m0 10.4v20.8m0 10.4v2.1m0 10.4v20.8m0 10.4v2.07m0 10.4v20.8m0 10.4v2.1m0 10.4v20.8m0 10.4v2.07m0 10.4v20.8m0 10.4v2.08m-.05 10.35h-20.8m-10.4 0h-2.08m-10.4 0h-20.8m-10.4 0h-2.1m-10.4 0h-20.8m-10.4 0h-2.07m-10.4 0h-10.4" stroke="#666" stroke-width="2" fill="none"/><path d="M1201 161.03h-2V160h2z" fill="#666"/><path d="M1043.24 500l14.26-4.64v9.28z" stroke="#666" stroke-width="2" fill="#666"/><path d="M1200 161v10.1m0 10.1v2.02m0 10.1v20.2m0 10.1v2.02m0 10.1v20.2m0 10.1v2.02m0 10.1v20.2m0 10.1v2.02m0 10.1v20.2m0 10.1v2.02m0 10.1v20.2m0 10.1v2.02m0 10.1v20.2m0 10.1v2.02m0 10.1v20.2m0 10.1v2.02m0 10.1v20.2m0 10.1v2.02m0 10.1v20.2m0 10.1V565m0 10.1V590h-5.3m-10.1 0h-2.02m-10.1 0h-20.2m-10.1 0h-2.02m-10.1 0h-20.2m-10.1 0h-2.02m-10.1 0h-20.2m-10.1 0h-2.02m-10.1 0h-20.2m-10.1 0h-2.02m-10.1 0h-20.2m-10.1 0h-2.02m-10.1 0h-20.2m-10.1 0h-2.02m-10.1 0h-20.2m-10.1 0h-2.02m-10.1 0h-20.2m-10.1 0h-2.02m-10.1 0h-20.2m-10.1 0h-2.02m-.8-9.3v-20.2m0-10.1v-2.02m0-10.1v-20.2m0-10.1v-2.02m-4.14-5.96h-20.2m-10.1 0h-2.02m-10.1 0h-20.2m-10.1 0h-2.02m-10.1 0h-20.2m-10.1 0h-2.02m-10.1 0h-10.1" stroke="#666" stroke-width="2" fill="none"/><path d="M1201 161.03h-2V160h2z" fill="#666"/><path d="M643.24 500l14.26-4.64v9.28z" stroke="#666" stroke-width="2" fill="#666"/><path d="M1200 161v9.94m0 9.93v2m0 9.92v19.86m0 9.94v2m0 9.92v19.87m0 9.93v1.98m0 9.95v19.87m0 9.94v1.98m0 9.94v19.87m0 9.93v2m0 9.93v19.88m0 9.93v2m0 9.94v19.87m0 9.94v2m0 9.92v19.87m0 9.94v2m0 9.92v19.86m0 9.94v2m0 9.92v19.87m0 9.93v1.98m0 9.95v19.87m-8.16 1.78h-1.98m-9.94 0h-19.87m-9.93 0h-2m-9.93 0h-19.88m-9.93 0h-2m-9.94 0h-19.87m-9.94 0h-2m-9.92 0h-19.87m-9.94 0h-2m-9.92 0h-19.86m-9.94 0h-2m-9.92 0H951.4m-9.93 0h-1.98m-9.95 0h-19.87m-9.94 0h-1.98m-9.94 0h-19.87m-9.93 0h-2m-9.93 0H826.2m-9.93 0h-2m-9.93 0H784.5m-9.94 0h-2m-9.92 0h-19.87m-9.94 0h-2m-9.92 0h-19.86m-9.94 0h-2m-9.92 0H659.3m-9.93 0h-1.98m-9.95 0h-19.87m-9.94 0h-1.98m-9.94 0h-19.87m-9.93 0h-2m-9.93 0H534.1m-9.93 0h-2m-9.93 0H492.4m-9.94 0h-2m-9.92 0h-19.87m-9.94 0h-2m-9.92 0h-19.86m-8.94-1v-1.98m0-9.94V557.2m0-9.93v-1.98m0-9.95v-19.87m0-9.93v-2m-6.38-3.55h-19.87m-9.93 0h-2m-9.93 0H332m-9.93 0h-2m-9.93 0H290.3m-9.94 0h-2m-9.92 0h-9.94" stroke="#666" stroke-width="2" fill="none"/><path d="M1201 161.03h-2V160h2z" fill="#666"/><path d="M243.24 500l14.26-4.64v9.28z" stroke="#666" stroke-width="2" fill="#666"/><path d="M601 341c0 .55-.45 1-1 1s-1-.45-1-1 .45-1 1-1 1 .45 1 1zm0 4c0 .56-.45 1-1 1s-1-.44-1-1c0-.55.45-1 1-1s1 .45 1 1zm0 4c0 .56-.45 1-1 1s-1-.44-1-1c0-.54.45-1 1-1s1 .46 1 1zm0 4c0 .56-.45 1-1 1s-1-.44-1-1c0-.54.45-1 1-1s1 .46 1 1zm0 4.02c0 .55-.45 1-1 1s-1-.45-1-1c0-.56.45-1 1-1s1 .44 1 1zm0 4c0 .55-.45 1-1 1s-1-.45-1-1 .45-1 1-1 1 .45 1 1zm0 4c0 .56-.45 1-1 1s-1-.44-1-1c0-.55.45-1 1-1s1 .45 1 1zm0 4c0 .56-.45 1-1 1s-1-.44-1-1c0-.54.45-1 1-1s1 .46 1 1zm0 4c0 .56-.45 1-1 1s-1-.44-1-1c0-.54.45-1 1-1s1 .46 1 1zm0 4.02c0 .55-.45 1-1 1s-1-.45-1-1c0-.56.45-1 1-1s1 .44 1 1zm0 4c0 .55-.45 1-1 1s-1-.45-1-1 .45-1 1-1 1 .45 1 1zm0 4c0 .56-.45 1-1 1s-1-.44-1-1c0-.55.45-1 1-1s1 .45 1 1zm0 4c0 .56-.45 1-1 1s-1-.44-1-1c0-.54.45-1 1-1s1 .46 1 1zm0 4c0 .56-.45 1-1 1s-1-.44-1-1c0-.54.45-1 1-1s1 .46 1 1zm0 4.02c0 .55-.45 1-1 1s-1-.45-1-1c0-.56.45-1 1-1s1 .44 1 1zm-1.06 2.94c0 .55-.45 1-1 1s-1-.45-1-1 .45-1 1-1 1 .45 1 1zm-4 0c0 .55-.45 1-1 1-.56 0-1-.45-1-1s.44-1 1-1c.55 0 1 .45 1 1zm-4 0c0 .55-.46 1-1 1-.56 0-1-.45-1-1s.44-1 1-1c.54 0 1 .45 1 1zm-4 0c0 .55-.46 1-1 1-.56 0-1-.45-1-1s.44-1 1-1c.54 0 1 .45 1 1zm-4.02 0c0 .55-.44 1-1 1-.55 0-1-.45-1-1s.45-1 1-1c.56 0 1 .45 1 1zm-4 0c0 .55-.45 1-1 1s-1-.45-1-1 .45-1 1-1 1 .45 1 1zm-4 0c0 .55-.45 1-1 1-.56 0-1-.45-1-1s.44-1 1-1c.55 0 1 .45 1 1zm-4 0c0 .55-.46 1-1 1-.56 0-1-.45-1-1s.44-1 1-1c.54 0 1 .45 1 1zm-4 0c0 .55-.46 1-1 1-.56 0-1-.45-1-1s.44-1 1-1c.54 0 1 .45 1 1zm-4.02 0c0 .55-.44 1-1 1-.55 0-1-.45-1-1s.45-1 1-1c.56 0 1 .45 1 1zm-4 0c0 .55-.45 1-1 1s-1-.45-1-1 .45-1 1-1 1 .45 1 1zm-4 0c0 .55-.45 1-1 1-.56 0-1-.45-1-1s.44-1 1-1c.55 0 1 .45 1 1zm-4 0c0 .55-.46 1-1 1-.56 0-1-.45-1-1s.44-1 1-1c.54 0 1 .45 1 1zm-4 0c0 .55-.46 1-1 1-.56 0-1-.45-1-1s.44-1 1-1c.54 0 1 .45 1 1zm-4.02 0c0 .55-.44 1-1 1-.55 0-1-.45-1-1s.45-1 1-1c.56 0 1 .45 1 1zm-4 0c0 .55-.45 1-1 1s-1-.45-1-1 .45-1 1-1 1 .45 1 1zm-4 0c0 .55-.45 1-1 1-.56 0-1-.45-1-1s.44-1 1-1c.55 0 1 .45 1 1zm-4 0c0 .55-.46 1-1 1-.56 0-1-.45-1-1s.44-1 1-1c.54 0 1 .45 1 1zm-4 0c0 .55-.46 1-1 1-.56 0-1-.45-1-1s.44-1 1-1c.54 0 1 .45 1 1zm-4.02 0c0 .55-.44 1-1 1-.55 0-1-.45-1-1s.45-1 1-1c.56 0 1 .45 1 1zm-4 0c0 .55-.45 1-1 1s-1-.45-1-1 .45-1 1-1 1 .45 1 1zm-4 0c0 .55-.45 1-1 1-.56 0-1-.45-1-1s.44-1 1-1c.55 0 1 .45 1 1zm-4 0c0 .55-.46 1-1 1-.56 0-1-.45-1-1s.44-1 1-1c.54 0 1 .45 1 1zm-4 0c0 .55-.46 1-1 1-.56 0-1-.45-1-1s.44-1 1-1c.54 0 1 .45 1 1zm-4.02 0c0 .55-.44 1-1 1-.55 0-1-.45-1-1s.45-1 1-1c.56 0 1 .45 1 1zm-4 0c0 .55-.45 1-1 1s-1-.45-1-1 .45-1 1-1 1 .45 1 1zm-4 0c0 .55-.45 1-1 1-.56 0-1-.45-1-1s.44-1 1-1c.55 0 1 .45 1 1zm-4 0c0 .55-.46 1-1 1-.56 0-1-.45-1-1s.44-1 1-1c.54 0 1 .45 1 1zm-4 0c0 .55-.46 1-1 1-.56 0-1-.45-1-1s.44-1 1-1c.54 0 1 .45 1 1zm-4.02 0c0 .55-.44 1-1 1-.55 0-1-.45-1-1s.45-1 1-1c.56 0 1 .45 1 1zm-4 0c0 .55-.45 1-1 1s-1-.45-1-1 .45-1 1-1 1 .45 1 1zm-4 0c0 .55-.45 1-1 1-.56 0-1-.45-1-1s.44-1 1-1c.55 0 1 .45 1 1zm-4 0c0 .55-.45 1-1 1-.56 0-1-.45-1-1s.44-1 1-1c.55 0 1 .45 1 1zm-4 0c0 .55-.46 1-1 1-.56 0-1-.45-1-1s.44-1 1-1c.54 0 1 .45 1 1zm-4.02 0c0 .55-.44 1-1 1-.55 0-1-.45-1-1s.45-1 1-1c.56 0 1 .45 1 1zm-4 0c0 .55-.45 1-1 1s-1-.45-1-1 .45-1 1-1 1 .45 1 1zm-4 0c0 .55-.45 1-1 1-.56 0-1-.45-1-1s.44-1 1-1c.55 0 1 .45 1 1zm-4 0c0 .55-.45 1-1 1-.56 0-1-.45-1-1s.44-1 1-1c.55 0 1 .45 1 1zm-4 0c0 .55-.46 1-1 1-.56 0-1-.45-1-1s.44-1 1-1c.54 0 1 .45 1 1zm-4.02 0c0 .55-.44 1-1 1-.55 0-1-.45-1-1s.45-1 1-1c.56 0 1 .45 1 1zm-4 0c0 .55-.45 1-1 1s-1-.45-1-1 .45-1 1-1 1 .45 1 1zm-4 0c0 .55-.45 1-1 1-.56 0-1-.45-1-1s.44-1 1-1c.55 0 1 .45 1 1zm-4 0c0 .55-.45 1-1 1-.56 0-1-.45-1-1s.44-1 1-1c.55 0 1 .45 1 1zm-4 0c0 .55-.46 1-1 1-.56 0-1-.45-1-1s.44-1 1-1c.54 0 1 .45 1 1zm-4.02 0c0 .55-.44 1-1 1-.55 0-1-.45-1-1s.45-1 1-1c.56 0 1 .45 1 1zm-4 0c0 .55-.45 1-1 1s-1-.45-1-1 .45-1 1-1 1 .45 1 1zm-4 0c0 .55-.45 1-1 1-.56 0-1-.45-1-1s.44-1 1-1c.55 0 1 .45 1 1zm-4 0c0 .55-.45 1-1 1-.56 0-1-.45-1-1s.44-1 1-1c.55 0 1 .45 1 1zm-4 0c0 .55-.46 1-1 1-.56 0-1-.45-1-1s.44-1 1-1c.54 0 1 .45 1 1zm-4.02 0c0 .55-.44 1-1 1-.55 0-1-.45-1-1s.45-1 1-1c.56 0 1 .45 1 1zm-4 0c0 .55-.45 1-1 1s-1-.45-1-1 .45-1 1-1 1 .45 1 1zm-4 0c0 .55-.45 1-1 1-.56 0-1-.45-1-1s.44-1 1-1c.55 0 1 .45 1 1zm-4 0c0 .55-.45 1-1 1-.56 0-1-.45-1-1s.44-1 1-1c.55 0 1 .45 1 1zm-4 0c0 .55-.46 1-1 1-.56 0-1-.45-1-1s.44-1 1-1c.54 0 1 .45 1 1zm-4 0c0 .55-.46 1-1 1-.57 0-1-.45-1-1s.43-1 1-1c.54 0 1 .45 1 1zm-4.02 0c0 .55-.45 1-1 1s-1-.45-1-1 .45-1 1-1 1 .45 1 1zm-4 0c0 .55-.45 1-1 1-.56 0-1-.45-1-1s.44-1 1-1c.55 0 1 .45 1 1zm-4 0c0 .55-.45 1-1 1-.56 0-1-.45-1-1s.44-1 1-1c.55 0 1 .45 1 1zm-4 0c0 .55-.46 1-1 1-.56 0-1-.45-1-1s.44-1 1-1c.54 0 1 .45 1 1zm-4 0c0 .55-.46 1-1 1-.57 0-1-.45-1-1s.43-1 1-1c.54 0 1 .45 1 1zm-4.02 0c0 .55-.45 1-1 1s-1-.45-1-1 .45-1 1-1 1 .45 1 1zm-4 0c0 .55-.45 1-1 1-.56 0-1-.45-1-1s.44-1 1-1c.55 0 1 .45 1 1zm-4 0c0 .55-.45 1-1 1-.56 0-1-.45-1-1s.44-1 1-1c.55 0 1 .45 1 1zm-4 0c0 .55-.46 1-1 1-.56 0-1-.45-1-1s.44-1 1-1c.54 0 1 .45 1 1zm-4 0c0 .55-.46 1-1 1-.57 0-1-.45-1-1s.43-1 1-1c.54 0 1 .45 1 1zm-4.02 0c0 .55-.45 1-1 1s-1-.45-1-1 .45-1 1-1 1 .45 1 1zm-4 0c0 .55-.45 1-1 1-.56 0-1-.45-1-1s.44-1 1-1c.55 0 1 .45 1 1zm-4 0c0 .55-.45 1-1 1-.56 0-1-.45-1-1s.44-1 1-1c.55 0 1 .45 1 1zm-4 0c0 .55-.46 1-1 1-.56 0-1-.45-1-1s.44-1 1-1c.54 0 1 .45 1 1zm-4 0c0 .55-.46 1-1 1-.57 0-1-.45-1-1s.43-1 1-1c.54 0 1 .45 1 1zm-4.02 0c0 .55-.45 1-1 1s-1-.45-1-1 .45-1 1-1 1 .45 1 1zm-4 0c0 .55-.45 1-1 1s-1-.45-1-1 .45-1 1-1 1 .45 1 1zm-4 0c0 .55-.45 1-1 1-.56 0-1-.45-1-1s.44-1 1-1c.55 0 1 .45 1 1zm-4 0c0 .55-.46 1-1 1-.56 0-1-.45-1-1s.44-1 1-1c.54 0 1 .45 1 1zm-4 0c0 .55-.46 1-1 1-.57 0-1-.45-1-1s.43-1 1-1c.54 0 1 .45 1 1zm-4.02 0c0 .55-.45 1-1 1s-1-.45-1-1 .45-1 1-1 1 .45 1 1zm-4 0c0 .55-.45 1-1 1s-1-.45-1-1 .45-1 1-1 1 .45 1 1zm-4 0c0 .55-.45 1-1 1-.56 0-1-.45-1-1s.44-1 1-1c.55 0 1 .45 1 1zm-4 0c0 .55-.46 1-1 1-.56 0-1-.45-1-1s.44-1 1-1c.54 0 1 .45 1 1zm-4 0c0 .55-.46 1-1 1-.57 0-1-.45-1-1s.43-1 1-1c.54 0 1 .45 1 1zm-4.02 0c0 .55-.45 1-1 1s-1-.45-1-1 .45-1 1-1 1 .45 1 1zm-4 0c0 .55-.45 1-1 1s-1-.45-1-1 .45-1 1-1 1 .45 1 1zm-4 0c0 .55-.45 1-1 1-.56 0-1-.45-1-1s.44-1 1-1c.55 0 1 .45 1 1zm-4 0c0 .55-.46 1-1 1-.56 0-1-.45-1-1s.44-1 1-1c.54 0 1 .45 1 1zm-4 0c0 .55-.46 1-1 1-.57 0-1-.45-1-1s.43-1 1-1c.54 0 1 .45 1 1zm-4.02 0c0 .55-.45 1-1 1s-1-.45-1-1 .45-1 1-1 1 .45 1 1zm-4 0c0 .55-.45 1-1 1s-1-.45-1-1 .45-1 1-1 1 .45 1 1zm-4 0c0 .55-.45 1-1 1-.56 0-1-.45-1-1s.44-1 1-1c.55 0 1 .45 1 1zm-4 0c0 .55-.46 1-1 1-.56 0-1-.45-1-1s.44-1 1-1c.54 0 1 .45 1 1zm-4 0c0 .55-.46 1-1 1-.57 0-1-.45-1-1s.43-1 1-1c.54 0 1 .45 1 1zm-4.02 0c0 .55-.45 1-1 1s-1-.45-1-1 .45-1 1-1 1 .45 1 1zm-4 0c0 .55-.45 1-1 1s-1-.45-1-1 .45-1 1-1 1 .45 1 1zm-4 0c0 .55-.45 1-1 1-.56 0-1-.45-1-1s.44-1 1-1c.55 0 1 .45 1 1zm-4 0c0 .55-.46 1-1 1-.56 0-1-.45-1-1s.44-1 1-1c.54 0 1 .45 1 1zm-4 0c0 .55-.46 1-1 1-.57 0-1-.45-1-1s.43-1 1-1c.54 0 1 .45 1 1zm-4.02 0c0 .55-.45 1-1 1s-1-.45-1-1 .45-1 1-1 1 .45 1 1zm-4 0c0 .55-.45 1-1 1s-1-.45-1-1 .45-1 1-1 1 .45 1 1zm-4 0c0 .55-.45 1-1 1-.56 0-1-.45-1-1s.44-1 1-1c.55 0 1 .45 1 1zm-4 0c0 .55-.46 1-1 1-.56 0-1-.45-1-1s.44-1 1-1c.54 0 1 .45 1 1zm-4 0c0 .55-.46 1-1 1-.57 0-1-.45-1-1s.43-1 1-1c.54 0 1 .45 1 1zm-2.56 1.46c0 .55-.45 1-1 1s-1-.45-1-1 .45-1 1-1 1 .45 1 1zm0 4c0 .55-.45 1-1 1s-1-.45-1-1 .45-1 1-1 1 .45 1 1zm0 4c0 .56-.45 1-1 1s-1-.44-1-1c0-.55.45-1 1-1s1 .45 1 1zm0 4c0 .56-.45 1-1 1s-1-.44-1-1c0-.54.45-1 1-1s1 .46 1 1zm0 4c0 .57-.45 1-1 1s-1-.43-1-1c0-.54.45-1 1-1s1 .46 1 1zm0 4.02c0 .55-.45 1-1 1s-1-.45-1-1 .45-1 1-1 1 .45 1 1zm0 4c0 .55-.45 1-1 1s-1-.45-1-1 .45-1 1-1 1 .45 1 1zm0 4c0 .56-.45 1-1 1s-1-.44-1-1c0-.55.45-1 1-1s1 .45 1 1zm0 4c0 .56-.45 1-1 1s-1-.44-1-1c0-.54.45-1 1-1s1 .46 1 1zm0 4c0 .57-.45 1-1 1s-1-.43-1-1c0-.54.45-1 1-1s1 .46 1 1zm0 4.02c0 .55-.45 1-1 1s-1-.45-1-1 .45-1 1-1 1 .45 1 1z"/><path d="M601 341.03h-2V340h2z"/><path d="M200 456.76l-4.64-14.26h9.28z" stroke="#000" stroke-width="2"/><path d="M590.58 308.48v-14.66h-5.4v-3.1h14.64v3.1h-5.4v14.66zM602 292.35c.9-.7 1.74-1.18 2.8-1.56 1.03-.36 1.95-.5 3.04-.5 1.46-.06 2.72.4 3.83 1.36 1.02.96 1.52 2.18 1.47 3.58-.03 1.02-.25 1.9-.74 2.8-.7 1.2-1.4 2.17-2.34 3.2-1.1 1.2-2.53 2.62-4.35 4.28h8.17v2.96h-12.34v-2.76c2.22-2.22 3.86-3.95 4.9-5.17.9-.96 1.57-1.85 2.26-2.96.38-.68.58-1.32.62-2.1.03-.58-.16-1.1-.58-1.5-.46-.4-1-.6-1.6-.56-.88 0-1.64.17-2.46.5-1 .4-1.8.83-2.68 1.47z" stroke="#fff" stroke-opacity="0" fill="#d86613"/><path d="M632.18 332.18h-64.36v-64.36h64.36zm-61.02-3.34h57.68v-57.68h-57.68z" stroke="#fff" stroke-opacity="0" fill="#d86613"/><path d="M577.02 260h3.33v9.48h-3.33V260zM587.47 260h3.33v9.48h-3.33V260zM597.93 260h3.34v9.48h-3.34V260zM608.4 260h3.33v9.48h-3.33V260zM618.87 260h3.33v9.48h-3.33V260zM577.02 330.52h3.33V340h-3.33v-9.48zM587.47 330.52h3.33V340h-3.33v-9.48zM597.93 330.52h3.34V340h-3.34v-9.48zM608.4 330.52h3.33V340h-3.33v-9.48zM618.87 330.52h3.33V340h-3.33v-9.48zM630.52 277.42H640v3.33h-9.48v-3.33zM630.52 287.87H640v3.33h-9.48v-3.33zM630.52 298.33H640v3.34h-9.48v-3.34zM630.52 308.8H640v3.33h-9.48v-3.33zM630.52 319.25H640v3.33h-9.48v-3.33zM560 277.42h9.48v3.33H560v-3.33zM560 287.87h9.48v3.33H560v-3.33zM560 298.33h9.48v3.34H560v-3.34zM560 308.8h9.48v3.33H560v-3.33zM560 319.25h9.48v3.33H560v-3.33z" stroke="#fff" stroke-opacity="0" fill="#d86613"/><use xlink:href="#l" transform="matrix(1,0,0,1,530,349) translate(-87.50617283950623 14.222222222222223)"/><path d="M601 341c0 .55-.45 1-1 1s-1-.45-1-1 .45-1 1-1 1 .45 1 1zm0 4.02c0 .55-.45 1-1 1s-1-.45-1-1 .45-1 1-1 1 .45 1 1zm0 4.02c0 .55-.45 1-1 1s-1-.45-1-1 .45-1 1-1 1 .45 1 1zm0 4.02c0 .55-.45 1-1 1s-1-.45-1-1 .45-1 1-1 1 .45 1 1zm0 4.02c0 .55-.45 1-1 1s-1-.45-1-1 .45-1 1-1 1 .45 1 1zm0 4.02c0 .55-.45 1-1 1s-1-.45-1-1 .45-1 1-1 1 .45 1 1zm0 4.02c0 .55-.45 1-1 1s-1-.45-1-1 .45-1 1-1 1 .45 1 1zm0 4.02c0 .55-.45 1-1 1s-1-.45-1-1 .45-1 1-1 1 .45 1 1zm0 4.02c0 .55-.45 1-1 1s-1-.45-1-1 .45-1 1-1 1 .45 1 1zm0 4.02c0 .55-.45 1-1 1s-1-.45-1-1 .45-1 1-1 1 .45 1 1zm0 4.02c0 .55-.45 1-1 1s-1-.45-1-1 .45-1 1-1 1 .45 1 1zm0 4.02c0 .55-.45 1-1 1s-1-.45-1-1 .45-1 1-1 1 .45 1 1zm0 4.02c0 .55-.45 1-1 1s-1-.45-1-1 .45-1 1-1 1 .45 1 1zm0 4.02c0 .55-.45 1-1 1s-1-.45-1-1 .45-1 1-1 1 .45 1 1zm0 4.02c0 .55-.45 1-1 1s-1-.45-1-1 .45-1 1-1 1 .45 1 1zm0 4.02c0 .55-.45 1-1 1s-1-.45-1-1 .45-1 1-1 1 .45 1 1zm0 4.02c0 .55-.45 1-1 1s-1-.45-1-1 .45-1 1-1 1 .45 1 1zm0 4.02c0 .55-.45 1-1 1s-1-.45-1-1 .45-1 1-1 1 .45 1 1zm0 4.02c0 .55-.45 1-1 1s-1-.45-1-1 .45-1 1-1 1 .45 1 1zm0 4.02c0 .55-.45 1-1 1s-1-.45-1-1 .45-1 1-1 1 .45 1 1zm0 4.02c0 .55-.45 1-1 1s-1-.45-1-1 .45-1 1-1 1 .45 1 1zm0 4.02c0 .55-.45 1-1 1s-1-.45-1-1 .45-1 1-1 1 .45 1 1zm0 4.02c0 .55-.45 1-1 1s-1-.45-1-1 .45-1 1-1 1 .45 1 1zm0 4.02c0 .55-.45 1-1 1s-1-.45-1-1 .45-1 1-1 1 .45 1 1zm0 4.02c0 .55-.45 1-1 1s-1-.45-1-1 .45-1 1-1 1 .45 1 1zm0 4.02c0 .55-.45 1-1 1s-1-.45-1-1 .45-1 1-1 1 .45 1 1z"/><path d="M601 341.03h-2V340h2z"/><path d="M600 456.76l-4.64-14.26h9.28z" stroke="#000" stroke-width="2"/><path d="M601 341c0 .55-.45 1-1 1s-1-.45-1-1 .45-1 1-1 1 .45 1 1zm0 4c0 .56-.45 1-1 1s-1-.44-1-1c0-.55.45-1 1-1s1 .45 1 1zm0 4c0 .56-.45 1-1 1s-1-.44-1-1c0-.54.45-1 1-1s1 .46 1 1zm0 4c0 .56-.45 1-1 1s-1-.44-1-1c0-.54.45-1 1-1s1 .46 1 1zm0 4.02c0 .55-.45 1-1 1s-1-.45-1-1c0-.56.45-1 1-1s1 .44 1 1zm0 4c0 .55-.45 1-1 1s-1-.45-1-1 .45-1 1-1 1 .45 1 1zm0 4c0 .56-.45 1-1 1s-1-.44-1-1c0-.55.45-1 1-1s1 .45 1 1zm0 4c0 .56-.45 1-1 1s-1-.44-1-1c0-.54.45-1 1-1s1 .46 1 1zm0 4c0 .56-.45 1-1 1s-1-.44-1-1c0-.54.45-1 1-1s1 .46 1 1zm0 4.02c0 .55-.45 1-1 1s-1-.45-1-1c0-.56.45-1 1-1s1 .44 1 1zm0 4c0 .55-.45 1-1 1s-1-.45-1-1 .45-1 1-1 1 .45 1 1zm0 4c0 .56-.45 1-1 1s-1-.44-1-1c0-.55.45-1 1-1s1 .45 1 1zm0 4c0 .56-.45 1-1 1s-1-.44-1-1c0-.54.45-1 1-1s1 .46 1 1zm0 4c0 .56-.45 1-1 1s-1-.44-1-1c0-.54.45-1 1-1s1 .46 1 1zm0 4.02c0 .55-.45 1-1 1s-1-.45-1-1c0-.56.45-1 1-1s1 .44 1 1zm1.06 2.94c0 .55-.45 1-1 1s-1-.45-1-1 .45-1 1-1 1 .45 1 1zm4 0c0 .55-.44 1-1 1-.55 0-1-.45-1-1s.45-1 1-1c.56 0 1 .45 1 1zm4 0c0 .55-.44 1-1 1-.54 0-1-.45-1-1s.46-1 1-1c.56 0 1 .45 1 1zm4 0c0 .55-.44 1-1 1-.54 0-1-.45-1-1s.46-1 1-1c.56 0 1 .45 1 1zm4.02 0c0 .55-.45 1-1 1-.56 0-1-.45-1-1s.44-1 1-1c.55 0 1 .45 1 1zm4 0c0 .55-.45 1-1 1s-1-.45-1-1 .45-1 1-1 1 .45 1 1zm4 0c0 .55-.44 1-1 1-.55 0-1-.45-1-1s.45-1 1-1c.56 0 1 .45 1 1zm4 0c0 .55-.44 1-1 1-.54 0-1-.45-1-1s.46-1 1-1c.56 0 1 .45 1 1zm4 0c0 .55-.44 1-1 1-.54 0-1-.45-1-1s.46-1 1-1c.56 0 1 .45 1 1zm4.02 0c0 .55-.45 1-1 1-.56 0-1-.45-1-1s.44-1 1-1c.55 0 1 .45 1 1zm4 0c0 .55-.45 1-1 1s-1-.45-1-1 .45-1 1-1 1 .45 1 1zm4 0c0 .55-.44 1-1 1-.55 0-1-.45-1-1s.45-1 1-1c.56 0 1 .45 1 1zm4 0c0 .55-.44 1-1 1-.54 0-1-.45-1-1s.46-1 1-1c.56 0 1 .45 1 1zm4 0c0 .55-.44 1-1 1-.54 0-1-.45-1-1s.46-1 1-1c.56 0 1 .45 1 1zm4.02 0c0 .55-.45 1-1 1-.56 0-1-.45-1-1s.44-1 1-1c.55 0 1 .45 1 1zm4 0c0 .55-.45 1-1 1s-1-.45-1-1 .45-1 1-1 1 .45 1 1zm4 0c0 .55-.44 1-1 1-.55 0-1-.45-1-1s.45-1 1-1c.56 0 1 .45 1 1zm4 0c0 .55-.44 1-1 1-.54 0-1-.45-1-1s.46-1 1-1c.56 0 1 .45 1 1zm4 0c0 .55-.44 1-1 1-.54 0-1-.45-1-1s.46-1 1-1c.56 0 1 .45 1 1zm4.02 0c0 .55-.45 1-1 1-.56 0-1-.45-1-1s.44-1 1-1c.55 0 1 .45 1 1zm4 0c0 .55-.45 1-1 1s-1-.45-1-1 .45-1 1-1 1 .45 1 1zm4 0c0 .55-.44 1-1 1-.55 0-1-.45-1-1s.45-1 1-1c.56 0 1 .45 1 1zm4 0c0 .55-.44 1-1 1-.54 0-1-.45-1-1s.46-1 1-1c.56 0 1 .45 1 1zm4 0c0 .55-.44 1-1 1-.54 0-1-.45-1-1s.46-1 1-1c.56 0 1 .45 1 1zm4.02 0c0 .55-.45 1-1 1-.56 0-1-.45-1-1s.44-1 1-1c.55 0 1 .45 1 1zm4 0c0 .55-.45 1-1 1s-1-.45-1-1 .45-1 1-1 1 .45 1 1zm4 0c0 .55-.44 1-1 1-.55 0-1-.45-1-1s.45-1 1-1c.56 0 1 .45 1 1zm4 0c0 .55-.44 1-1 1-.54 0-1-.45-1-1s.46-1 1-1c.56 0 1 .45 1 1zm4 0c0 .55-.44 1-1 1-.54 0-1-.45-1-1s.46-1 1-1c.56 0 1 .45 1 1zm4.02 0c0 .55-.45 1-1 1-.56 0-1-.45-1-1s.44-1 1-1c.55 0 1 .45 1 1zm4 0c0 .55-.45 1-1 1s-1-.45-1-1 .45-1 1-1 1 .45 1 1zm4 0c0 .55-.44 1-1 1-.55 0-1-.45-1-1s.45-1 1-1c.56 0 1 .45 1 1zm4 0c0 .55-.44 1-1 1-.55 0-1-.45-1-1s.45-1 1-1c.56 0 1 .45 1 1zm4 0c0 .55-.44 1-1 1-.54 0-1-.45-1-1s.46-1 1-1c.56 0 1 .45 1 1zm4.02 0c0 .55-.45 1-1 1-.56 0-1-.45-1-1s.44-1 1-1c.55 0 1 .45 1 1zm4 0c0 .55-.45 1-1 1s-1-.45-1-1 .45-1 1-1 1 .45 1 1zm4 0c0 .55-.44 1-1 1-.55 0-1-.45-1-1s.45-1 1-1c.56 0 1 .45 1 1zm4 0c0 .55-.44 1-1 1-.55 0-1-.45-1-1s.45-1 1-1c.56 0 1 .45 1 1zm4 0c0 .55-.44 1-1 1-.54 0-1-.45-1-1s.46-1 1-1c.56 0 1 .45 1 1zm4.02 0c0 .55-.45 1-1 1-.56 0-1-.45-1-1s.44-1 1-1c.55 0 1 .45 1 1zm4 0c0 .55-.45 1-1 1s-1-.45-1-1 .45-1 1-1 1 .45 1 1zm4 0c0 .55-.44 1-1 1-.55 0-1-.45-1-1s.45-1 1-1c.56 0 1 .45 1 1zm4 0c0 .55-.44 1-1 1-.55 0-1-.45-1-1s.45-1 1-1c.56 0 1 .45 1 1zm4 0c0 .55-.44 1-1 1-.54 0-1-.45-1-1s.46-1 1-1c.56 0 1 .45 1 1zm4.02 0c0 .55-.45 1-1 1-.56 0-1-.45-1-1s.44-1 1-1c.55 0 1 .45 1 1zm4 0c0 .55-.45 1-1 1s-1-.45-1-1 .45-1 1-1 1 .45 1 1zm4 0c0 .55-.44 1-1 1-.55 0-1-.45-1-1s.45-1 1-1c.56 0 1 .45 1 1zm4 0c0 .55-.44 1-1 1-.55 0-1-.45-1-1s.45-1 1-1c.56 0 1 .45 1 1zm4 0c0 .55-.44 1-1 1-.54 0-1-.45-1-1s.46-1 1-1c.56 0 1 .45 1 1zm4.02 0c0 .55-.45 1-1 1-.56 0-1-.45-1-1s.44-1 1-1c.55 0 1 .45 1 1zm4 0c0 .55-.45 1-1 1s-1-.45-1-1 .45-1 1-1 1 .45 1 1zm4 0c0 .55-.44 1-1 1-.55 0-1-.45-1-1s.45-1 1-1c.56 0 1 .45 1 1zm4 0c0 .55-.44 1-1 1-.55 0-1-.45-1-1s.45-1 1-1c.56 0 1 .45 1 1zm4 0c0 .55-.44 1-1 1-.54 0-1-.45-1-1s.46-1 1-1c.56 0 1 .45 1 1zm4 0c0 .55-.43 1-1 1-.54 0-1-.45-1-1s.46-1 1-1c.57 0 1 .45 1 1zm4.02 0c0 .55-.45 1-1 1s-1-.45-1-1 .45-1 1-1 1 .45 1 1zm4 0c0 .55-.44 1-1 1-.55 0-1-.45-1-1s.45-1 1-1c.56 0 1 .45 1 1zm4 0c0 .55-.44 1-1 1-.55 0-1-.45-1-1s.45-1 1-1c.56 0 1 .45 1 1zm4 0c0 .55-.44 1-1 1-.54 0-1-.45-1-1s.46-1 1-1c.56 0 1 .45 1 1zm4 0c0 .55-.43 1-1 1-.54 0-1-.45-1-1s.46-1 1-1c.57 0 1 .45 1 1zm4.02 0c0 .55-.45 1-1 1s-1-.45-1-1 .45-1 1-1 1 .45 1 1zm4 0c0 .55-.44 1-1 1-.55 0-1-.45-1-1s.45-1 1-1c.56 0 1 .45 1 1zm4 0c0 .55-.44 1-1 1-.55 0-1-.45-1-1s.45-1 1-1c.56 0 1 .45 1 1zm4 0c0 .55-.44 1-1 1-.54 0-1-.45-1-1s.46-1 1-1c.56 0 1 .45 1 1zm4 0c0 .55-.43 1-1 1-.54 0-1-.45-1-1s.46-1 1-1c.57 0 1 .45 1 1zm4.02 0c0 .55-.45 1-1 1s-1-.45-1-1 .45-1 1-1 1 .45 1 1zm4 0c0 .55-.44 1-1 1-.55 0-1-.45-1-1s.45-1 1-1c.56 0 1 .45 1 1zm4 0c0 .55-.44 1-1 1-.55 0-1-.45-1-1s.45-1 1-1c.56 0 1 .45 1 1zm4 0c0 .55-.44 1-1 1-.54 0-1-.45-1-1s.46-1 1-1c.56 0 1 .45 1 1zm4 0c0 .55-.43 1-1 1-.54 0-1-.45-1-1s.46-1 1-1c.57 0 1 .45 1 1zm4.02 0c0 .55-.45 1-1 1s-1-.45-1-1 .45-1 1-1 1 .45 1 1zm4 0c0 .55-.45 1-1 1s-1-.45-1-1 .45-1 1-1 1 .45 1 1zm4 0c0 .55-.44 1-1 1-.55 0-1-.45-1-1s.45-1 1-1c.56 0 1 .45 1 1zm4 0c0 .55-.44 1-1 1-.54 0-1-.45-1-1s.46-1 1-1c.56 0 1 .45 1 1zm4 0c0 .55-.43 1-1 1-.54 0-1-.45-1-1s.46-1 1-1c.57 0 1 .45 1 1zm4.02 0c0 .55-.45 1-1 1s-1-.45-1-1 .45-1 1-1 1 .45 1 1zm4 0c0 .55-.45 1-1 1s-1-.45-1-1 .45-1 1-1 1 .45 1 1zm4 0c0 .55-.44 1-1 1-.55 0-1-.45-1-1s.45-1 1-1c.56 0 1 .45 1 1zm4 0c0 .55-.44 1-1 1-.54 0-1-.45-1-1s.46-1 1-1c.56 0 1 .45 1 1zm4 0c0 .55-.43 1-1 1-.54 0-1-.45-1-1s.46-1 1-1c.57 0 1 .45 1 1zm4.02 0c0 .55-.45 1-1 1s-1-.45-1-1 .45-1 1-1 1 .45 1 1zm4 0c0 .55-.45 1-1 1s-1-.45-1-1 .45-1 1-1 1 .45 1 1zm4 0c0 .55-.44 1-1 1-.55 0-1-.45-1-1s.45-1 1-1c.56 0 1 .45 1 1zm4 0c0 .55-.44 1-1 1-.54 0-1-.45-1-1s.46-1 1-1c.56 0 1 .45 1 1zm4 0c0 .55-.43 1-1 1-.54 0-1-.45-1-1s.46-1 1-1c.57 0 1 .45 1 1zm4.02 0c0 .55-.45 1-1 1s-1-.45-1-1 .45-1 1-1 1 .45 1 1zm4 0c0 .55-.45 1-1 1s-1-.45-1-1 .45-1 1-1 1 .45 1 1zm4 0c0 .55-.44 1-1 1-.55 0-1-.45-1-1s.45-1 1-1c.56 0 1 .45 1 1zm4 0c0 .55-.44 1-1 1-.54 0-1-.45-1-1s.46-1 1-1c.56 0 1 .45 1 1zm4 0c0 .55-.43 1-1 1-.54 0-1-.45-1-1s.46-1 1-1c.57 0 1 .45 1 1zm4.02 0c0 .55-.45 1-1 1s-1-.45-1-1 .45-1 1-1 1 .45 1 1zm4 0c0 .55-.45 1-1 1s-1-.45-1-1 .45-1 1-1 1 .45 1 1zm4 0c0 .55-.44 1-1 1-.55 0-1-.45-1-1s.45-1 1-1c.56 0 1 .45 1 1zm4 0c0 .55-.44 1-1 1-.54 0-1-.45-1-1s.46-1 1-1c.56 0 1 .45 1 1zm4 0c0 .55-.43 1-1 1-.54 0-1-.45-1-1s.46-1 1-1c.57 0 1 .45 1 1zm4.02 0c0 .55-.45 1-1 1s-1-.45-1-1 .45-1 1-1 1 .45 1 1zm4 0c0 .55-.45 1-1 1s-1-.45-1-1 .45-1 1-1 1 .45 1 1zm4 0c0 .55-.44 1-1 1-.55 0-1-.45-1-1s.45-1 1-1c.56 0 1 .45 1 1zm4 0c0 .55-.44 1-1 1-.54 0-1-.45-1-1s.46-1 1-1c.56 0 1 .45 1 1zm4 0c0 .55-.43 1-1 1-.54 0-1-.45-1-1s.46-1 1-1c.57 0 1 .45 1 1zm2.56 1.46c0 .55-.45 1-1 1s-1-.45-1-1 .45-1 1-1 1 .45 1 1zm0 4c0 .55-.45 1-1 1s-1-.45-1-1 .45-1 1-1 1 .45 1 1zm0 4c0 .56-.45 1-1 1s-1-.44-1-1c0-.55.45-1 1-1s1 .45 1 1zm0 4c0 .56-.45 1-1 1s-1-.44-1-1c0-.54.45-1 1-1s1 .46 1 1zm0 4c0 .57-.45 1-1 1s-1-.43-1-1c0-.54.45-1 1-1s1 .46 1 1zm0 4.02c0 .55-.45 1-1 1s-1-.45-1-1 .45-1 1-1 1 .45 1 1zm0 4c0 .55-.45 1-1 1s-1-.45-1-1 .45-1 1-1 1 .45 1 1zm0 4c0 .56-.45 1-1 1s-1-.44-1-1c0-.55.45-1 1-1s1 .45 1 1zm0 4c0 .56-.45 1-1 1s-1-.44-1-1c0-.54.45-1 1-1s1 .46 1 1zm0 4c0 .57-.45 1-1 1s-1-.43-1-1c0-.54.45-1 1-1s1 .46 1 1zm0 4.02c0 .55-.45 1-1 1s-1-.45-1-1 .45-1 1-1 1 .45 1 1z"/><path d="M601 341.03h-2V340h2z"/><path d="M1000 456.76l-4.64-14.26h9.28z" stroke="#000" stroke-width="2"/><path d="M399.35 140l-1.02-.8c-5.5-4-10.94-6.4-17.63-7.84-13-2.32-20.7-9.36-20.7-18.8.16-4.88 1.5-8.88 4.17-12.88 1.65-2.96 3.15-5.44 3.15-8.88-.16-4.8-2.05-8.8-5.67-11.92l-1.34-1.12 1.12-1.28c0-.08 9.2-11.12 11.33-14l1.18-1.68 1.42 1.44c3 3.6 6.84 5.52 11.5 5.76 4.4 0 7.78-1.92 11.16-6.32l1.35-1.68 1.34 1.68c3.3 4.4 6.76 6.32 11.16 6.32 4.65-.24 8.5-2.16 11.5-5.76l1.4-1.44 1.2 1.68c2.12 2.88 11.24 13.92 11.32 14l1.1 1.28-1.33 1.12c-3.62 3.12-5.5 7.12-5.67 11.92 0 3.44 1.42 5.92 3.15 8.88 2.67 4 4 8 4.17 12.88 0 9.44-7.7 16.48-20.7 18.8-6.7 1.44-12.12 3.84-17.63 7.84zm-34.4-62.56c3.7 3.68 5.6 8.08 5.75 13.36-.23 3.92-1.33 7.28-3.62 10.48-1.9 3.36-3.7 6.48-3.7 11.2 0 11.52 13.7 14.8 17.87 15.6 6.85 1.44 12.35 3.76 18.1 7.76 5.75-4 11.25-6.32 18.1-7.76 4.17-.72 17.87-4.08 17.87-15.52 0-4.8-1.8-7.92-3.7-11.2-2.3-3.28-3.4-6.56-3.62-10.56.15-5.2 2.04-9.68 5.74-13.36-2.12-2.56-6.84-8.24-9.28-11.44-3.47 3.44-7.64 5.2-12.6 5.36-5.03 0-9.36-2.08-12.5-6-3.16 3.92-7.5 6-12.52 6-4.96-.16-9.13-1.92-12.6-5.36-2.43 3.2-7.16 8.88-9.28 11.44z" stroke="#fff" stroke-opacity="0" fill="#693cc5"/><use xlink:href="#m" transform="matrix(1,0,0,1,330.00000000000006,149) translate(-79.63580246913585 14.222222222222223)"/><path d="M799.35 140l-1.02-.8c-5.5-4-10.94-6.4-17.63-7.84-13-2.32-20.7-9.36-20.7-18.8.16-4.88 1.5-8.88 4.17-12.88 1.65-2.96 3.15-5.44 3.15-8.88-.16-4.8-2.05-8.8-5.67-11.92l-1.34-1.12 1.12-1.28c0-.08 9.2-11.12 11.33-14l1.18-1.68 1.42 1.44c3 3.6 6.84 5.52 11.5 5.76 4.4 0 7.78-1.92 11.16-6.32l1.35-1.68 1.34 1.68c3.3 4.4 6.76 6.32 11.16 6.32 4.65-.24 8.5-2.16 11.5-5.76l1.4-1.44 1.2 1.68c2.12 2.88 11.24 13.92 11.32 14l1.1 1.28-1.33 1.12c-3.62 3.12-5.5 7.12-5.67 11.92 0 3.44 1.42 5.92 3.15 8.88 2.67 4 4 8 4.17 12.88 0 9.44-7.7 16.48-20.7 18.8-6.7 1.44-12.12 3.84-17.63 7.84zm-34.4-62.56c3.7 3.68 5.6 8.08 5.75 13.36-.23 3.92-1.33 7.28-3.62 10.48-1.9 3.36-3.7 6.48-3.7 11.2 0 11.52 13.7 14.8 17.87 15.6 6.85 1.44 12.35 3.76 18.1 7.76 5.75-4 11.25-6.32 18.1-7.76 4.17-.72 17.87-4.08 17.87-15.52 0-4.8-1.8-7.92-3.7-11.2-2.3-3.28-3.4-6.56-3.62-10.56.15-5.2 2.04-9.68 5.74-13.36-2.12-2.56-6.85-8.24-9.28-11.44-3.47 3.44-7.64 5.2-12.6 5.36-5.03 0-9.36-2.08-12.5-6-3.16 3.92-7.5 6-12.52 6-4.96-.16-9.13-1.92-12.6-5.36-2.44 3.2-7.16 8.88-9.28 11.44z" stroke="#fff" stroke-opacity="0" fill="#693cc5"/><use xlink:href="#n" transform="matrix(1,0,0,1,730,149) translate(-78.20370370370375 14.222222222222223)"/><path d="M435.7 100H600v141.5" stroke="#000" stroke-width="2" fill="none"/><path d="M435.72 101h-.53l-.67-1.32-.4-.68h1.6z"/><path d="M600 256.76l-4.64-14.26h9.28z" stroke="#000" stroke-width="2"/><path d="M762.96 100H600.78v141.5" stroke="#000" stroke-width="2" fill="none"/><path d="M764.17 99.68l-.55.85-.2.47h-.48v-2h1.6z"/><path d="M600.78 256.76l-4.63-14.26h9.27z" stroke="#000" stroke-width="2"/><defs><path fill="#248814" d="M85-194c31 0 48 13 60 33l-1-100h32l1 261h-30c-2-10 0-23-3-31C134-8 116 4 85 4 32 4 16-35 15-94c0-66 23-100 70-100zm9 24c-40 0-46 34-46 75 0 40 6 74 45 74 42 0 51-32 51-76 0-42-9-74-50-73" id="o"/><path fill="#248814" d="M100-194c63 0 86 42 84 106H49c0 40 14 67 53 68 26 1 43-12 49-29l28 8c-11 28-37 45-77 45C44 4 14-33 15-96c1-61 26-98 85-98zm52 81c6-60-76-77-97-28-3 7-6 17-6 28h103" id="p"/><path fill="#248814" d="M108 0H70L1-190h34L89-25l56-165h34" id="q"/><path fill="#248814" d="M16-82v-28h88v28H16" id="r"/><path fill="#248814" d="M117-194c89-4 53 116 60 194h-32v-121c0-31-8-49-39-48C34-167 62-67 57 0H25l-1-190h30c1 10-1 24 2 32 11-22 29-35 61-36" id="s"/><path fill="#248814" d="M177-190C167-65 218 103 67 71c-23-6-38-20-44-43l32-5c15 47 100 32 89-28v-30C133-14 115 1 83 1 29 1 15-40 15-95c0-56 16-97 71-98 29-1 48 16 59 35 1-10 0-23 2-32h30zM94-22c36 0 50-32 50-73 0-42-14-75-50-75-39 0-46 34-46 75s6 73 46 73" id="t"/><path fill="#248814" d="M115-194c55 1 70 41 70 98S169 2 115 4C84 4 66-9 55-30l1 105H24l-1-265h31l2 30c10-21 28-34 59-34zm-8 174c40 0 45-34 45-75s-6-73-45-74c-42 0-51 32-51 76 0 43 10 73 51 73" id="u"/><path fill="#248814" d="M96-169c-40 0-48 33-48 73s9 75 48 75c24 0 41-14 43-38l32 2c-6 37-31 61-74 61-59 0-76-41-82-99-10-93 101-131 147-64 4 7 5 14 7 22l-32 3c-4-21-16-35-41-35" id="v"/><g id="a"><use transform="matrix(0.05,0,0,0.05,0,0)" xlink:href="#o"/><use transform="matrix(0.05,0,0,0.05,10,0)" xlink:href="#p"/><use transform="matrix(0.05,0,0,0.05,20,0)" xlink:href="#q"/><use transform="matrix(0.05,0,0,0.05,29,0)" xlink:href="#r"/><use transform="matrix(0.05,0,0,0.05,34.95,0)" xlink:href="#p"/><use transform="matrix(0.05,0,0,0.05,44.95,0)" xlink:href="#s"/><use transform="matrix(0.05,0,0,0.05,54.95,0)" xlink:href="#t"/><use transform="matrix(0.05,0,0,0.05,64.95,0)" xlink:href="#r"/><use transform="matrix(0.05,0,0,0.05,70.9,0)" xlink:href="#q"/><use transform="matrix(0.05,0,0,0.05,79.9,0)" xlink:href="#u"/><use transform="matrix(0.05,0,0,0.05,89.9,0)" xlink:href="#v"/></g><path fill="#248814" d="M30-248c87 1 191-15 191 75 0 78-77 80-158 76V0H30v-248zm33 125c57 0 124 11 124-50 0-59-68-47-124-48v98" id="w"/><path fill="#248814" d="M84 4C-5 8 30-112 23-190h32v120c0 31 7 50 39 49 72-2 45-101 50-169h31l1 190h-30c-1-10 1-25-2-33-11 22-28 36-60 37" id="x"/><path fill="#248814" d="M115-194c53 0 69 39 70 98 0 66-23 100-70 100C84 3 66-7 56-30L54 0H23l1-261h32v101c10-23 28-34 59-34zm-8 174c40 0 45-34 45-75 0-40-5-75-45-74-42 0-51 32-51 76 0 43 10 73 51 73" id="y"/><path fill="#248814" d="M24 0v-261h32V0H24" id="z"/><path fill="#248814" d="M24-231v-30h32v30H24zM24 0v-190h32V0H24" id="A"/><g id="b"><use transform="matrix(0.05,0,0,0.05,0,0)" xlink:href="#w"/><use transform="matrix(0.05,0,0,0.05,12,0)" xlink:href="#x"/><use transform="matrix(0.05,0,0,0.05,22,0)" xlink:href="#y"/><use transform="matrix(0.05,0,0,0.05,32,0)" xlink:href="#z"/><use transform="matrix(0.05,0,0,0.05,35.95,0)" xlink:href="#A"/><use transform="matrix(0.05,0,0,0.05,39.900000000000006,0)" xlink:href="#v"/></g><path fill="#248814" d="M185-189c-5-48-123-54-124 2 14 75 158 14 163 119 3 78-121 87-175 55-17-10-28-26-33-46l33-7c5 56 141 63 141-1 0-78-155-14-162-118-5-82 145-84 179-34 5 7 8 16 11 25" id="B"/><path fill="#248814" d="M59-47c-2 24 18 29 38 22v24C64 9 27 4 27-40v-127H5v-23h24l9-43h21v43h35v23H59v120" id="C"/><path fill="#248814" d="M135-143c-3-34-86-38-87 0 15 53 115 12 119 90S17 21 10-45l28-5c4 36 97 45 98 0-10-56-113-15-118-90-4-57 82-63 122-42 12 7 21 19 24 35" id="D"/><path fill="#248814" d="M33-154v-36h34v36H33zM33 0v-36h34V0H33" id="E"/><g id="c"><use transform="matrix(0.05,0,0,0.05,0,0)" xlink:href="#B"/><use transform="matrix(0.05,0,0,0.05,12,0)" xlink:href="#x"/><use transform="matrix(0.05,0,0,0.05,22,0)" xlink:href="#y"/><use transform="matrix(0.05,0,0,0.05,32,0)" xlink:href="#s"/><use transform="matrix(0.05,0,0,0.05,42,0)" xlink:href="#p"/><use transform="matrix(0.05,0,0,0.05,52,0)" xlink:href="#C"/><use transform="matrix(0.05,0,0,0.05,57,0)" xlink:href="#D"/><use transform="matrix(0.05,0,0,0.05,66,0)" xlink:href="#E"/></g><use transform="matrix(0.05,0,0,0.05,0,0)" xlink:href="#r" id="d"/><path fill="#248814" d="M141-36C126-15 110 5 73 4 37 3 15-17 15-53c-1-64 63-63 125-63 3-35-9-54-41-54-24 1-41 7-42 31l-33-3c5-37 33-52 76-52 45 0 72 20 72 64v82c-1 20 7 32 28 27v20c-31 9-61-2-59-35zM48-53c0 20 12 33 32 33 41-3 63-29 60-74-43 2-92-5-92 41" id="F"/><path fill="#248814" d="M27 0v-27h64v-190l-56 39v-29l58-41h29v221h61V0H27" id="G"/><g id="e"><use transform="matrix(0.05,0,0,0.05,0,0)" xlink:href="#x"/><use transform="matrix(0.05,0,0,0.05,10,0)" xlink:href="#D"/><use transform="matrix(0.05,0,0,0.05,19,0)" xlink:href="#r"/><use transform="matrix(0.05,0,0,0.05,24.95,0)" xlink:href="#p"/><use transform="matrix(0.05,0,0,0.05,34.95,0)" xlink:href="#F"/><use transform="matrix(0.05,0,0,0.05,44.95,0)" xlink:href="#D"/><use transform="matrix(0.05,0,0,0.05,53.95,0)" xlink:href="#C"/><use transform="matrix(0.05,0,0,0.05,58.95,0)" xlink:href="#r"/><use transform="matrix(0.05,0,0,0.05,64.9,0)" xlink:href="#G"/><use transform="matrix(0.05,0,0,0.05,74.9,0)" xlink:href="#F"/></g><g id="f"><use transform="matrix(0.05,0,0,0.05,0,0)" xlink:href="#x"/><use transform="matrix(0.05,0,0,0.05,10,0)" xlink:href="#D"/><use transform="matrix(0.05,0,0,0.05,19,0)" xlink:href="#r"/><use transform="matrix(0.05,0,0,0.05,24.95,0)" xlink:href="#p"/><use transform="matrix(0.05,0,0,0.05,34.95,0)" xlink:href="#F"/><use transform="matrix(0.05,0,0,0.05,44.95,0)" xlink:href="#D"/><use transform="matrix(0.05,0,0,0.05,53.95,0)" xlink:href="#C"/><use transform="matrix(0.05,0,0,0.05,58.95,0)" xlink:href="#r"/><use transform="matrix(0.05,0,0,0.05,64.9,0)" xlink:href="#G"/><use transform="matrix(0.05,0,0,0.05,74.9,0)" xlink:href="#y"/></g><g id="g"><use transform="matrix(0.05,0,0,0.05,0,0)" xlink:href="#x"/><use transform="matrix(0.05,0,0,0.05,10,0)" xlink:href="#D"/><use transform="matrix(0.05,0,0,0.05,19,0)" xlink:href="#r"/><use transform="matrix(0.05,0,0,0.05,24.95,0)" xlink:href="#p"/><use transform="matrix(0.05,0,0,0.05,34.95,0)" xlink:href="#F"/><use transform="matrix(0.05,0,0,0.05,44.95,0)" xlink:href="#D"/><use transform="matrix(0.05,0,0,0.05,53.95,0)" xlink:href="#C"/><use transform="matrix(0.05,0,0,0.05,58.95,0)" xlink:href="#r"/><use transform="matrix(0.05,0,0,0.05,64.9,0)" xlink:href="#G"/><use transform="matrix(0.05,0,0,0.05,74.9,0)" xlink:href="#v"/></g><path d="M141-36C126-15 110 5 73 4 37 3 15-17 15-53c-1-64 63-63 125-63 3-35-9-54-41-54-24 1-41 7-42 31l-33-3c5-37 33-52 76-52 45 0 72 20 72 64v82c-1 20 7 32 28 27v20c-31 9-61-2-59-35zM48-53c0 20 12 33 32 33 41-3 63-29 60-74-43 2-92-5-92 41" id="H"/><path d="M117-194c89-4 53 116 60 194h-32v-121c0-31-8-49-39-48C34-167 62-67 57 0H25l-1-190h30c1 10-1 24 2 32 11-22 29-35 61-36" id="I"/><path d="M135-143c-3-34-86-38-87 0 15 53 115 12 119 90S17 21 10-45l28-5c4 36 97 45 98 0-10-56-113-15-118-90-4-57 82-63 122-42 12 7 21 19 24 35" id="J"/><path d="M24-231v-30h32v30H24zM24 0v-190h32V0H24" id="K"/><path d="M115-194c53 0 69 39 70 98 0 66-23 100-70 100C84 3 66-7 56-30L54 0H23l1-261h32v101c10-23 28-34 59-34zm-8 174c40 0 45-34 45-75 0-40-5-75-45-74-42 0-51 32-51 76 0 43 10 73 51 73" id="L"/><path d="M24 0v-261h32V0H24" id="M"/><path d="M100-194c63 0 86 42 84 106H49c0 40 14 67 53 68 26 1 43-12 49-29l28 8c-11 28-37 45-77 45C44 4 14-33 15-96c1-61 26-98 85-98zm52 81c6-60-76-77-97-28-3 7-6 17-6 28h103" id="N"/><path d="M16-82v-28h88v28H16" id="O"/><path d="M96-169c-40 0-48 33-48 73s9 75 48 75c24 0 41-14 43-38l32 2c-6 37-31 61-74 61-59 0-76-41-82-99-10-93 101-131 147-64 4 7 5 14 7 22l-32 3c-4-21-16-35-41-35" id="P"/><path d="M100-194c62-1 85 37 85 99 1 63-27 99-86 99S16-35 15-95c0-66 28-99 85-99zM99-20c44 1 53-31 53-75 0-43-8-75-51-75s-53 32-53 75 10 74 51 75" id="Q"/><path d="M101-234c-31-9-42 10-38 44h38v23H63V0H32v-167H5v-23h27c-7-52 17-82 69-68v24" id="R"/><path d="M177-190C167-65 218 103 67 71c-23-6-38-20-44-43l32-5c15 47 100 32 89-28v-30C133-14 115 1 83 1 29 1 15-40 15-95c0-56 16-97 71-98 29-1 48 16 59 35 1-10 0-23 2-32h30zM94-22c36 0 50-32 50-73 0-42-14-75-50-75-39 0-46 34-46 75s6 73 46 73" id="S"/><path d="M114-163C36-179 61-72 57 0H25l-1-190h30c1 12-1 29 2 39 6-27 23-49 58-41v29" id="T"/><path d="M108 0H70L1-190h34L89-25l56-165h34" id="U"/><path d="M33 0v-38h34V0H33" id="V"/><path d="M115-194c55 1 70 41 70 98S169 2 115 4C84 4 66-9 55-30l1 105H24l-1-265h31l2 30c10-21 28-34 59-34zm-8 174c40 0 45-34 45-75s-6-73-45-74c-42 0-51 32-51 76 0 43 10 73 51 73" id="W"/><path d="M126-127c33 6 58 20 58 59 0 88-139 92-164 29-3-8-5-16-6-25l32-3c6 27 21 44 54 44 32 0 52-15 52-46 0-38-36-46-79-43v-28c39 1 72-4 72-42 0-27-17-43-46-43-28 0-47 15-49 41l-32-3c6-42 35-63 81-64 48-1 79 21 79 65 0 36-21 52-52 59" id="X"/><path d="M27 0v-27h64v-190l-56 39v-29l58-41h29v221h61V0H27" id="Y"/><path d="M141 0L90-78 38 0H4l68-98-65-92h35l48 74 47-74h35l-64 92 68 98h-35" id="Z"/><path d="M210-169c-67 3-38 105-44 169h-31v-121c0-29-5-50-35-48C34-165 62-65 56 0H25l-1-190h30c1 10-1 24 2 32 10-44 99-50 107 0 11-21 27-35 58-36 85-2 47 119 55 194h-31v-121c0-29-5-49-35-48" id="aa"/><path d="M85-194c31 0 48 13 60 33l-1-100h32l1 261h-30c-2-10 0-23-3-31C134-8 116 4 85 4 32 4 16-35 15-94c0-66 23-100 70-100zm9 24c-40 0-46 34-46 75 0 40 6 74 45 74 42 0 51-32 51-76 0-42-9-74-50-73" id="ab"/><path d="M59-47c-2 24 18 29 38 22v24C64 9 27 4 27-40v-127H5v-23h24l9-43h21v43h35v23H59v120" id="ac"/><g id="h"><use transform="matrix(0.03703703703703704,0,0,0.03703703703703704,0,0)" xlink:href="#H"/><use transform="matrix(0.03703703703703704,0,0,0.03703703703703704,7.407407407407408,0)" xlink:href="#I"/><use transform="matrix(0.03703703703703704,0,0,0.03703703703703704,14.814814814814817,0)" xlink:href="#J"/><use transform="matrix(0.03703703703703704,0,0,0.03703703703703704,21.481481481481485,0)" xlink:href="#K"/><use transform="matrix(0.03703703703703704,0,0,0.03703703703703704,24.407407407407412,0)" xlink:href="#L"/><use transform="matrix(0.03703703703703704,0,0,0.03703703703703704,31.81481481481482,0)" xlink:href="#M"/><use transform="matrix(0.03703703703703704,0,0,0.03703703703703704,34.74074074074075,0)" xlink:href="#N"/><use transform="matrix(0.03703703703703704,0,0,0.03703703703703704,42.14814814814816,0)" xlink:href="#O"/><use transform="matrix(0.03703703703703704,0,0,0.03703703703703704,46.555555555555564,0)" xlink:href="#P"/><use transform="matrix(0.03703703703703704,0,0,0.03703703703703704,53.222222222222236,0)" xlink:href="#Q"/><use transform="matrix(0.03703703703703704,0,0,0.03703703703703704,60.62962962962964,0)" xlink:href="#I"/><use transform="matrix(0.03703703703703704,0,0,0.03703703703703704,68.03703703703705,0)" xlink:href="#R"/><use transform="matrix(0.03703703703703704,0,0,0.03703703703703704,71.74074074074075,0)" xlink:href="#K"/><use transform="matrix(0.03703703703703704,0,0,0.03703703703703704,74.66666666666669,0)" xlink:href="#S"/><use transform="matrix(0.03703703703703704,0,0,0.03703703703703704,82.07407407407409,0)" xlink:href="#J"/><use transform="matrix(0.03703703703703704,0,0,0.03703703703703704,88.74074074074078,0)" xlink:href="#N"/><use transform="matrix(0.03703703703703704,0,0,0.03703703703703704,96.14814814814817,0)" xlink:href="#T"/><use transform="matrix(0.03703703703703704,0,0,0.03703703703703704,100.55555555555557,0)" xlink:href="#U"/><use transform="matrix(0.03703703703703704,0,0,0.03703703703703704,107.22222222222224,0)" xlink:href="#N"/><use transform="matrix(0.03703703703703704,0,0,0.03703703703703704,114.62962962962965,0)" xlink:href="#T"/><use transform="matrix(0.03703703703703704,0,0,0.03703703703703704,118.29629629629632,0)" xlink:href="#V"/><use transform="matrix(0.03703703703703704,0,0,0.03703703703703704,122,0)" xlink:href="#Q"/><use transform="matrix(0.03703703703703704,0,0,0.03703703703703704,129.40740740740742,0)" xlink:href="#P"/><use transform="matrix(0.03703703703703704,0,0,0.03703703703703704,136.07407407407408,0)" xlink:href="#W"/><use transform="matrix(0.03703703703703704,0,0,0.03703703703703704,143.4814814814815,0)" xlink:href="#X"/><use transform="matrix(0.03703703703703704,0,0,0.03703703703703704,150.88888888888889,0)" xlink:href="#O"/><use transform="matrix(0.03703703703703704,0,0,0.03703703703703704,155.2962962962963,0)" xlink:href="#Y"/><use transform="matrix(0.03703703703703704,0,0,0.03703703703703704,161.7037037037037,0)" xlink:href="#Y"/><use transform="matrix(0.03703703703703704,0,0,0.03703703703703704,169.1111111111111,0)" xlink:href="#O"/><use transform="matrix(0.03703703703703704,0,0,0.03703703703703704,173.5185185185185,0)" xlink:href="#N"/><use transform="matrix(0.03703703703703704,0,0,0.03703703703703704,180.92592592592592,0)" xlink:href="#Z"/><use transform="matrix(0.03703703703703704,0,0,0.03703703703703704,187.59259259259258,0)" xlink:href="#H"/><use transform="matrix(0.03703703703703704,0,0,0.03703703703703704,195.00000000000003,0)" xlink:href="#aa"/><use transform="matrix(0.03703703703703704,0,0,0.03703703703703704,206.07407407407408,0)" xlink:href="#W"/><use transform="matrix(0.03703703703703704,0,0,0.03703703703703704,213.48148148148152,0)" xlink:href="#M"/><use transform="matrix(0.03703703703703704,0,0,0.03703703703703704,216.4074074074074,0)" xlink:href="#N"/><use transform="matrix(0.03703703703703704,0,0,0.03703703703703704,223.8148148148148,0)" xlink:href="#V"/><use transform="matrix(0.03703703703703704,0,0,0.03703703703703704,227.51851851851856,0)" xlink:href="#ab"/><use transform="matrix(0.03703703703703704,0,0,0.03703703703703704,234.92592592592592,0)" xlink:href="#N"/><use transform="matrix(0.03703703703703704,0,0,0.03703703703703704,242.33333333333334,0)" xlink:href="#U"/><use transform="matrix(0.03703703703703704,0,0,0.03703703703703704,248,0)" xlink:href="#V"/><use transform="matrix(0.03703703703703704,0,0,0.03703703703703704,251.7037037037037,0)" xlink:href="#X"/><use transform="matrix(0.03703703703703704,0,0,0.03703703703703704,259.1111111111111,0)" xlink:href="#J"/><use transform="matrix(0.03703703703703704,0,0,0.03703703703703704,265.77777777777777,0)" xlink:href="#P"/><use transform="matrix(0.03703703703703704,0,0,0.03703703703703704,272.44444444444446,0)" xlink:href="#H"/><use transform="matrix(0.03703703703703704,0,0,0.03703703703703704,279.85185185185185,0)" xlink:href="#V"/><use transform="matrix(0.03703703703703704,0,0,0.03703703703703704,283.55555555555554,0)" xlink:href="#I"/><use transform="matrix(0.03703703703703704,0,0,0.03703703703703704,290.96296296296293,0)" xlink:href="#N"/><use transform="matrix(0.03703703703703704,0,0,0.03703703703703704,298.3703703703704,0)" xlink:href="#ac"/></g><path d="M206 0h-36l-40-164L89 0H53L-1-190h32L70-26l43-164h34l41 164 42-164h31" id="ad"/><path d="M143 0L79-87 56-68V0H24v-261h32v163l83-92h37l-77 82L181 0h-38" id="ae"/><g id="i"><use transform="matrix(0.04938271604938272,0,0,0.04938271604938272,0,0)" xlink:href="#ad"/><use transform="matrix(0.04938271604938272,0,0,0.04938271604938272,12.790123456790125,0)" xlink:href="#Q"/><use transform="matrix(0.04938271604938272,0,0,0.04938271604938272,22.66666666666667,0)" xlink:href="#T"/><use transform="matrix(0.04938271604938272,0,0,0.04938271604938272,28.54320987654322,0)" xlink:href="#ae"/><use transform="matrix(0.04938271604938272,0,0,0.04938271604938272,37.4320987654321,0)" xlink:href="#N"/><use transform="matrix(0.04938271604938272,0,0,0.04938271604938272,47.308641975308646,0)" xlink:href="#T"/><use transform="matrix(0.04938271604938272,0,0,0.04938271604938272,53.18518518518519,0)" xlink:href="#O"/><use transform="matrix(0.04938271604938272,0,0,0.04938271604938272,59.061728395061735,0)" xlink:href="#Y"/><use transform="matrix(0.04938271604938272,0,0,0.04938271604938272,68.93827160493828,0)" xlink:href="#V"/><use transform="matrix(0.04938271604938272,0,0,0.04938271604938272,73.87654320987656,0)" xlink:href="#Q"/><use transform="matrix(0.04938271604938272,0,0,0.04938271604938272,83.7530864197531,0)" xlink:href="#P"/><use transform="matrix(0.04938271604938272,0,0,0.04938271604938272,92.64197530864199,0)" xlink:href="#W"/><use transform="matrix(0.04938271604938272,0,0,0.04938271604938272,102.51851851851853,0)" xlink:href="#X"/><use transform="matrix(0.04938271604938272,0,0,0.04938271604938272,112.39506172839508,0)" xlink:href="#O"/><use transform="matrix(0.04938271604938272,0,0,0.04938271604938272,118.27160493827161,0)" xlink:href="#Y"/><use transform="matrix(0.04938271604938272,0,0,0.04938271604938272,126.81481481481485,0)" xlink:href="#Y"/><use transform="matrix(0.04938271604938272,0,0,0.04938271604938272,136.6913580246914,0)" xlink:href="#O"/><use transform="matrix(0.04938271604938272,0,0,0.04938271604938272,142.56790123456793,0)" xlink:href="#N"/><use transform="matrix(0.04938271604938272,0,0,0.04938271604938272,152.44444444444446,0)" xlink:href="#Z"/><use transform="matrix(0.04938271604938272,0,0,0.04938271604938272,161.33333333333334,0)" xlink:href="#H"/><use transform="matrix(0.04938271604938272,0,0,0.04938271604938272,171.20987654320987,0)" xlink:href="#aa"/><use transform="matrix(0.04938271604938272,0,0,0.04938271604938272,185.97530864197532,0)" xlink:href="#W"/><use transform="matrix(0.04938271604938272,0,0,0.04938271604938272,195.85185185185185,0)" xlink:href="#M"/><use transform="matrix(0.04938271604938272,0,0,0.04938271604938272,199.7530864197531,0)" xlink:href="#N"/><use transform="matrix(0.04938271604938272,0,0,0.04938271604938272,209.6296296296296,0)" xlink:href="#V"/><use transform="matrix(0.04938271604938272,0,0,0.04938271604938272,214.56790123456793,0)" xlink:href="#ab"/><use transform="matrix(0.04938271604938272,0,0,0.04938271604938272,224.44444444444446,0)" xlink:href="#N"/><use transform="matrix(0.04938271604938272,0,0,0.04938271604938272,234.32098765432102,0)" xlink:href="#U"/><use transform="matrix(0.04938271604938272,0,0,0.04938271604938272,241.87654320987656,0)" xlink:href="#V"/><use transform="matrix(0.04938271604938272,0,0,0.04938271604938272,246.81481481481484,0)" xlink:href="#X"/><use transform="matrix(0.04938271604938272,0,0,0.04938271604938272,256.6913580246914,0)" xlink:href="#J"/><use transform="matrix(0.04938271604938272,0,0,0.04938271604938272,265.5802469135803,0)" xlink:href="#P"/><use transform="matrix(0.04938271604938272,0,0,0.04938271604938272,274.4691358024692,0)" xlink:href="#H"/><use transform="matrix(0.04938271604938272,0,0,0.04938271604938272,284.3456790123458,0)" xlink:href="#V"/><use transform="matrix(0.04938271604938272,0,0,0.04938271604938272,289.28395061728406,0)" xlink:href="#I"/><use transform="matrix(0.04938271604938272,0,0,0.04938271604938272,299.1604938271606,0)" xlink:href="#N"/><use transform="matrix(0.04938271604938272,0,0,0.04938271604938272,309.0370370370372,0)" xlink:href="#ac"/></g><path d="M101-251c82-7 93 87 43 132L82-64C71-53 59-42 53-27h129V0H18c2-99 128-94 128-182 0-28-16-43-45-43s-46 15-49 41l-32-3c6-41 34-60 81-64" id="af"/><g id="j"><use transform="matrix(0.04938271604938272,0,0,0.04938271604938272,0,0)" xlink:href="#ad"/><use transform="matrix(0.04938271604938272,0,0,0.04938271604938272,12.790123456790125,0)" xlink:href="#Q"/><use transform="matrix(0.04938271604938272,0,0,0.04938271604938272,22.66666666666667,0)" xlink:href="#T"/><use transform="matrix(0.04938271604938272,0,0,0.04938271604938272,28.54320987654322,0)" xlink:href="#ae"/><use transform="matrix(0.04938271604938272,0,0,0.04938271604938272,37.4320987654321,0)" xlink:href="#N"/><use transform="matrix(0.04938271604938272,0,0,0.04938271604938272,47.308641975308646,0)" xlink:href="#T"/><use transform="matrix(0.04938271604938272,0,0,0.04938271604938272,53.18518518518519,0)" xlink:href="#O"/><use transform="matrix(0.04938271604938272,0,0,0.04938271604938272,59.061728395061735,0)" xlink:href="#af"/><use transform="matrix(0.04938271604938272,0,0,0.04938271604938272,68.93827160493828,0)" xlink:href="#V"/><use transform="matrix(0.04938271604938272,0,0,0.04938271604938272,73.87654320987656,0)" xlink:href="#Q"/><use transform="matrix(0.04938271604938272,0,0,0.04938271604938272,83.7530864197531,0)" xlink:href="#P"/><use transform="matrix(0.04938271604938272,0,0,0.04938271604938272,92.64197530864199,0)" xlink:href="#W"/><use transform="matrix(0.04938271604938272,0,0,0.04938271604938272,102.51851851851853,0)" xlink:href="#X"/><use transform="matrix(0.04938271604938272,0,0,0.04938271604938272,112.39506172839508,0)" xlink:href="#O"/><use transform="matrix(0.04938271604938272,0,0,0.04938271604938272,118.27160493827161,0)" xlink:href="#Y"/><use transform="matrix(0.04938271604938272,0,0,0.04938271604938272,126.81481481481485,0)" xlink:href="#Y"/><use transform="matrix(0.04938271604938272,0,0,0.04938271604938272,136.6913580246914,0)" xlink:href="#O"/><use transform="matrix(0.04938271604938272,0,0,0.04938271604938272,142.56790123456793,0)" xlink:href="#N"/><use transform="matrix(0.04938271604938272,0,0,0.04938271604938272,152.44444444444446,0)" xlink:href="#Z"/><use transform="matrix(0.04938271604938272,0,0,0.04938271604938272,161.33333333333334,0)" xlink:href="#H"/><use transform="matrix(0.04938271604938272,0,0,0.04938271604938272,171.20987654320987,0)" xlink:href="#aa"/><use transform="matrix(0.04938271604938272,0,0,0.04938271604938272,185.97530864197532,0)" xlink:href="#W"/><use transform="matrix(0.04938271604938272,0,0,0.04938271604938272,195.85185185185185,0)" xlink:href="#M"/><use transform="matrix(0.04938271604938272,0,0,0.04938271604938272,199.7530864197531,0)" xlink:href="#N"/><use transform="matrix(0.04938271604938272,0,0,0.04938271604938272,209.6296296296296,0)" xlink:href="#V"/><use transform="matrix(0.04938271604938272,0,0,0.04938271604938272,214.56790123456793,0)" xlink:href="#ab"/><use transform="matrix(0.04938271604938272,0,0,0.04938271604938272,224.44444444444446,0)" xlink:href="#N"/><use transform="matrix(0.04938271604938272,0,0,0.04938271604938272,234.32098765432102,0)" xlink:href="#U"/><use transform="matrix(0.04938271604938272,0,0,0.04938271604938272,241.87654320987656,0)" xlink:href="#V"/><use transform="matrix(0.04938271604938272,0,0,0.04938271604938272,246.81481481481484,0)" xlink:href="#X"/><use transform="matrix(0.04938271604938272,0,0,0.04938271604938272,256.6913580246914,0)" xlink:href="#J"/><use transform="matrix(0.04938271604938272,0,0,0.04938271604938272,265.5802469135803,0)" xlink:href="#P"/><use transform="matrix(0.04938271604938272,0,0,0.04938271604938272,274.4691358024692,0)" xlink:href="#H"/><use transform="matrix(0.04938271604938272,0,0,0.04938271604938272,284.3456790123458,0)" xlink:href="#V"/><use transform="matrix(0.04938271604938272,0,0,0.04938271604938272,289.28395061728406,0)" xlink:href="#I"/><use transform="matrix(0.04938271604938272,0,0,0.04938271604938272,299.1604938271606,0)" xlink:href="#N"/><use transform="matrix(0.04938271604938272,0,0,0.04938271604938272,309.0370370370372,0)" xlink:href="#ac"/></g><path d="M101-251c68 0 85 55 85 127S166 4 100 4C33 4 14-52 14-124c0-73 17-127 87-127zm-1 229c47 0 54-49 54-102s-4-102-53-102c-51 0-55 48-55 102 0 53 5 102 54 102" id="ag"/><g id="k"><use transform="matrix(0.04938271604938272,0,0,0.04938271604938272,0,0)" xlink:href="#ad"/><use transform="matrix(0.04938271604938272,0,0,0.04938271604938272,12.790123456790125,0)" xlink:href="#Q"/><use transform="matrix(0.04938271604938272,0,0,0.04938271604938272,22.66666666666667,0)" xlink:href="#T"/><use transform="matrix(0.04938271604938272,0,0,0.04938271604938272,28.54320987654322,0)" xlink:href="#ae"/><use transform="matrix(0.04938271604938272,0,0,0.04938271604938272,37.4320987654321,0)" xlink:href="#N"/><use transform="matrix(0.04938271604938272,0,0,0.04938271604938272,47.308641975308646,0)" xlink:href="#T"/><use transform="matrix(0.04938271604938272,0,0,0.04938271604938272,53.18518518518519,0)" xlink:href="#O"/><use transform="matrix(0.04938271604938272,0,0,0.04938271604938272,59.061728395061735,0)" xlink:href="#ag"/><use transform="matrix(0.04938271604938272,0,0,0.04938271604938272,68.93827160493828,0)" xlink:href="#V"/><use transform="matrix(0.04938271604938272,0,0,0.04938271604938272,73.87654320987656,0)" xlink:href="#Q"/><use transform="matrix(0.04938271604938272,0,0,0.04938271604938272,83.7530864197531,0)" xlink:href="#P"/><use transform="matrix(0.04938271604938272,0,0,0.04938271604938272,92.64197530864199,0)" xlink:href="#W"/><use transform="matrix(0.04938271604938272,0,0,0.04938271604938272,102.51851851851853,0)" xlink:href="#X"/><use transform="matrix(0.04938271604938272,0,0,0.04938271604938272,112.39506172839508,0)" xlink:href="#O"/><use transform="matrix(0.04938271604938272,0,0,0.04938271604938272,118.27160493827161,0)" xlink:href="#Y"/><use transform="matrix(0.04938271604938272,0,0,0.04938271604938272,126.81481481481485,0)" xlink:href="#Y"/><use transform="matrix(0.04938271604938272,0,0,0.04938271604938272,136.6913580246914,0)" xlink:href="#O"/><use transform="matrix(0.04938271604938272,0,0,0.04938271604938272,142.56790123456793,0)" xlink:href="#N"/><use transform="matrix(0.04938271604938272,0,0,0.04938271604938272,152.44444444444446,0)" xlink:href="#Z"/><use transform="matrix(0.04938271604938272,0,0,0.04938271604938272,161.33333333333334,0)" xlink:href="#H"/><use transform="matrix(0.04938271604938272,0,0,0.04938271604938272,171.20987654320987,0)" xlink:href="#aa"/><use transform="matrix(0.04938271604938272,0,0,0.04938271604938272,185.97530864197532,0)" xlink:href="#W"/><use transform="matrix(0.04938271604938272,0,0,0.04938271604938272,195.85185185185185,0)" xlink:href="#M"/><use transform="matrix(0.04938271604938272,0,0,0.04938271604938272,199.7530864197531,0)" xlink:href="#N"/><use transform="matrix(0.04938271604938272,0,0,0.04938271604938272,209.6296296296296,0)" xlink:href="#V"/><use transform="matrix(0.04938271604938272,0,0,0.04938271604938272,214.56790123456793,0)" xlink:href="#ab"/><use transform="matrix(0.04938271604938272,0,0,0.04938271604938272,224.44444444444446,0)" xlink:href="#N"/><use transform="matrix(0.04938271604938272,0,0,0.04938271604938272,234.32098765432102,0)" xlink:href="#U"/><use transform="matrix(0.04938271604938272,0,0,0.04938271604938272,241.87654320987656,0)" xlink:href="#V"/><use transform="matrix(0.04938271604938272,0,0,0.04938271604938272,246.81481481481484,0)" xlink:href="#X"/><use transform="matrix(0.04938271604938272,0,0,0.04938271604938272,256.6913580246914,0)" xlink:href="#J"/><use transform="matrix(0.04938271604938272,0,0,0.04938271604938272,265.5802469135803,0)" xlink:href="#P"/><use transform="matrix(0.04938271604938272,0,0,0.04938271604938272,274.4691358024692,0)" xlink:href="#H"/><use transform="matrix(0.04938271604938272,0,0,0.04938271604938272,284.3456790123458,0)" xlink:href="#V"/><use transform="matrix(0.04938271604938272,0,0,0.04938271604938272,289.28395061728406,0)" xlink:href="#I"/><use transform="matrix(0.04938271604938272,0,0,0.04938271604938272,299.1604938271606,0)" xlink:href="#N"/><use transform="matrix(0.04938271604938272,0,0,0.04938271604938272,309.0370370370372,0)" xlink:href="#ac"/></g><g id="l"><use transform="matrix(0.04938271604938272,0,0,0.04938271604938272,0,0)" xlink:href="#aa"/><use transform="matrix(0.04938271604938272,0,0,0.04938271604938272,14.765432098765434,0)" xlink:href="#H"/><use transform="matrix(0.04938271604938272,0,0,0.04938271604938272,24.641975308641978,0)" xlink:href="#J"/><use transform="matrix(0.04938271604938272,0,0,0.04938271604938272,33.53086419753087,0)" xlink:href="#ac"/><use transform="matrix(0.04938271604938272,0,0,0.04938271604938272,38.46913580246914,0)" xlink:href="#N"/><use transform="matrix(0.04938271604938272,0,0,0.04938271604938272,48.345679012345684,0)" xlink:href="#T"/><use transform="matrix(0.04938271604938272,0,0,0.04938271604938272,54.22222222222223,0)" xlink:href="#O"/><use transform="matrix(0.04938271604938272,0,0,0.04938271604938272,60.09876543209877,0)" xlink:href="#ag"/><use transform="matrix(0.04938271604938272,0,0,0.04938271604938272,69.97530864197532,0)" xlink:href="#V"/><use transform="matrix(0.04938271604938272,0,0,0.04938271604938272,74.9135802469136,0)" xlink:href="#Q"/><use transform="matrix(0.04938271604938272,0,0,0.04938271604938272,84.79012345679014,0)" xlink:href="#P"/><use transform="matrix(0.04938271604938272,0,0,0.04938271604938272,93.67901234567903,0)" xlink:href="#W"/><use transform="matrix(0.04938271604938272,0,0,0.04938271604938272,103.55555555555557,0)" xlink:href="#X"/><use transform="matrix(0.04938271604938272,0,0,0.04938271604938272,113.4320987654321,0)" xlink:href="#O"/><use transform="matrix(0.04938271604938272,0,0,0.04938271604938272,119.30864197530865,0)" xlink:href="#Y"/><use transform="matrix(0.04938271604938272,0,0,0.04938271604938272,127.85185185185189,0)" xlink:href="#Y"/><use transform="matrix(0.04938271604938272,0,0,0.04938271604938272,137.7283950617284,0)" xlink:href="#O"/><use transform="matrix(0.04938271604938272,0,0,0.04938271604938272,143.60493827160494,0)" xlink:href="#N"/><use transform="matrix(0.04938271604938272,0,0,0.04938271604938272,153.48148148148147,0)" xlink:href="#Z"/><use transform="matrix(0.04938271604938272,0,0,0.04938271604938272,162.37037037037035,0)" xlink:href="#H"/><use transform="matrix(0.04938271604938272,0,0,0.04938271604938272,172.24691358024688,0)" xlink:href="#aa"/><use transform="matrix(0.04938271604938272,0,0,0.04938271604938272,187.01234567901233,0)" xlink:href="#W"/><use transform="matrix(0.04938271604938272,0,0,0.04938271604938272,196.88888888888886,0)" xlink:href="#M"/><use transform="matrix(0.04938271604938272,0,0,0.04938271604938272,200.7901234567901,0)" xlink:href="#N"/><use transform="matrix(0.04938271604938272,0,0,0.04938271604938272,210.66666666666663,0)" xlink:href="#V"/><use transform="matrix(0.04938271604938272,0,0,0.04938271604938272,215.6049382716049,0)" xlink:href="#ab"/><use transform="matrix(0.04938271604938272,0,0,0.04938271604938272,225.48148148148147,0)" xlink:href="#N"/><use transform="matrix(0.04938271604938272,0,0,0.04938271604938272,235.35802469135805,0)" xlink:href="#U"/><use transform="matrix(0.04938271604938272,0,0,0.04938271604938272,242.91358024691357,0)" xlink:href="#V"/><use transform="matrix(0.04938271604938272,0,0,0.04938271604938272,247.85185185185182,0)" xlink:href="#X"/><use transform="matrix(0.04938271604938272,0,0,0.04938271604938272,257.7283950617284,0)" xlink:href="#J"/><use transform="matrix(0.04938271604938272,0,0,0.04938271604938272,266.6172839506173,0)" xlink:href="#P"/><use transform="matrix(0.04938271604938272,0,0,0.04938271604938272,275.50617283950623,0)" xlink:href="#H"/><use transform="matrix(0.04938271604938272,0,0,0.04938271604938272,285.3827160493828,0)" xlink:href="#V"/><use transform="matrix(0.04938271604938272,0,0,0.04938271604938272,290.3209876543211,0)" xlink:href="#I"/><use transform="matrix(0.04938271604938272,0,0,0.04938271604938272,300.19753086419763,0)" xlink:href="#N"/><use transform="matrix(0.04938271604938272,0,0,0.04938271604938272,310.0740740740742,0)" xlink:href="#ac"/></g><g id="m"><use transform="matrix(0.04938271604938272,0,0,0.04938271604938272,0,0)" xlink:href="#aa"/><use transform="matrix(0.04938271604938272,0,0,0.04938271604938272,14.765432098765434,0)" xlink:href="#H"/><use transform="matrix(0.04938271604938272,0,0,0.04938271604938272,24.641975308641978,0)" xlink:href="#J"/><use transform="matrix(0.04938271604938272,0,0,0.04938271604938272,33.53086419753087,0)" xlink:href="#ac"/><use transform="matrix(0.04938271604938272,0,0,0.04938271604938272,38.46913580246914,0)" xlink:href="#N"/><use transform="matrix(0.04938271604938272,0,0,0.04938271604938272,48.345679012345684,0)" xlink:href="#T"/><use transform="matrix(0.04938271604938272,0,0,0.04938271604938272,53.23456790123457,0)" xlink:href="#V"/><use transform="matrix(0.04938271604938272,0,0,0.04938271604938272,58.17283950617284,0)" xlink:href="#Q"/><use transform="matrix(0.04938271604938272,0,0,0.04938271604938272,68.0493827160494,0)" xlink:href="#P"/><use transform="matrix(0.04938271604938272,0,0,0.04938271604938272,76.93827160493828,0)" xlink:href="#W"/><use transform="matrix(0.04938271604938272,0,0,0.04938271604938272,86.81481481481482,0)" xlink:href="#X"/><use transform="matrix(0.04938271604938272,0,0,0.04938271604938272,96.69135802469137,0)" xlink:href="#O"/><use transform="matrix(0.04938271604938272,0,0,0.04938271604938272,102.56790123456791,0)" xlink:href="#Y"/><use transform="matrix(0.04938271604938272,0,0,0.04938271604938272,111.11111111111111,0)" xlink:href="#Y"/><use transform="matrix(0.04938271604938272,0,0,0.04938271604938272,120.98765432098766,0)" xlink:href="#O"/><use transform="matrix(0.04938271604938272,0,0,0.04938271604938272,126.8641975308642,0)" xlink:href="#N"/><use transform="matrix(0.04938271604938272,0,0,0.04938271604938272,136.74074074074076,0)" xlink:href="#Z"/><use transform="matrix(0.04938271604938272,0,0,0.04938271604938272,145.62962962962965,0)" xlink:href="#H"/><use transform="matrix(0.04938271604938272,0,0,0.04938271604938272,155.50617283950618,0)" xlink:href="#aa"/><use transform="matrix(0.04938271604938272,0,0,0.04938271604938272,170.27160493827162,0)" xlink:href="#W"/><use transform="matrix(0.04938271604938272,0,0,0.04938271604938272,180.14814814814815,0)" xlink:href="#M"/><use transform="matrix(0.04938271604938272,0,0,0.04938271604938272,184.0493827160494,0)" xlink:href="#N"/><use transform="matrix(0.04938271604938272,0,0,0.04938271604938272,193.92592592592592,0)" xlink:href="#V"/><use transform="matrix(0.04938271604938272,0,0,0.04938271604938272,198.8641975308642,0)" xlink:href="#ab"/><use transform="matrix(0.04938271604938272,0,0,0.04938271604938272,208.74074074074076,0)" xlink:href="#N"/><use transform="matrix(0.04938271604938272,0,0,0.04938271604938272,218.6172839506173,0)" xlink:href="#U"/><use transform="matrix(0.04938271604938272,0,0,0.04938271604938272,226.17283950617286,0)" xlink:href="#V"/><use transform="matrix(0.04938271604938272,0,0,0.04938271604938272,231.11111111111114,0)" xlink:href="#X"/><use transform="matrix(0.04938271604938272,0,0,0.04938271604938272,240.98765432098773,0)" xlink:href="#J"/><use transform="matrix(0.04938271604938272,0,0,0.04938271604938272,249.87654320987662,0)" xlink:href="#P"/><use transform="matrix(0.04938271604938272,0,0,0.04938271604938272,258.7654320987655,0)" xlink:href="#H"/><use transform="matrix(0.04938271604938272,0,0,0.04938271604938272,268.64197530864203,0)" xlink:href="#V"/><use transform="matrix(0.04938271604938272,0,0,0.04938271604938272,273.5802469135803,0)" xlink:href="#I"/><use transform="matrix(0.04938271604938272,0,0,0.04938271604938272,283.45679012345687,0)" xlink:href="#N"/><use transform="matrix(0.04938271604938272,0,0,0.04938271604938272,293.3333333333334,0)" xlink:href="#ac"/></g><path d="M80-196l47-18 7 23-49 13 32 44-20 13-27-46-27 45-21-12 33-44-49-13 8-23 47 19-2-53h23" id="ah"/><g id="n"><use transform="matrix(0.04938271604938272,0,0,0.04938271604938272,0,0)" xlink:href="#ah"/><use transform="matrix(0.04938271604938272,0,0,0.04938271604938272,6.913580246913581,0)" xlink:href="#V"/><use transform="matrix(0.04938271604938272,0,0,0.04938271604938272,11.851851851851853,0)" xlink:href="#H"/><use transform="matrix(0.04938271604938272,0,0,0.04938271604938272,21.7283950617284,0)" xlink:href="#W"/><use transform="matrix(0.04938271604938272,0,0,0.04938271604938272,31.60493827160494,0)" xlink:href="#W"/><use transform="matrix(0.04938271604938272,0,0,0.04938271604938272,41.48148148148149,0)" xlink:href="#J"/><use transform="matrix(0.04938271604938272,0,0,0.04938271604938272,50.37037037037038,0)" xlink:href="#V"/><use transform="matrix(0.04938271604938272,0,0,0.04938271604938272,55.30864197530866,0)" xlink:href="#Q"/><use transform="matrix(0.04938271604938272,0,0,0.04938271604938272,65.18518518518519,0)" xlink:href="#P"/><use transform="matrix(0.04938271604938272,0,0,0.04938271604938272,74.07407407407408,0)" xlink:href="#W"/><use transform="matrix(0.04938271604938272,0,0,0.04938271604938272,83.95061728395062,0)" xlink:href="#X"/><use transform="matrix(0.04938271604938272,0,0,0.04938271604938272,93.82716049382717,0)" xlink:href="#O"/><use transform="matrix(0.04938271604938272,0,0,0.04938271604938272,99.70370370370371,0)" xlink:href="#Y"/><use transform="matrix(0.04938271604938272,0,0,0.04938271604938272,108.24691358024693,0)" xlink:href="#Y"/><use transform="matrix(0.04938271604938272,0,0,0.04938271604938272,118.12345679012347,0)" xlink:href="#O"/><use transform="matrix(0.04938271604938272,0,0,0.04938271604938272,124.00000000000001,0)" xlink:href="#N"/><use transform="matrix(0.04938271604938272,0,0,0.04938271604938272,133.87654320987656,0)" xlink:href="#Z"/><use transform="matrix(0.04938271604938272,0,0,0.04938271604938272,142.76543209876544,0)" xlink:href="#H"/><use transform="matrix(0.04938271604938272,0,0,0.04938271604938272,152.64197530864197,0)" xlink:href="#aa"/><use transform="matrix(0.04938271604938272,0,0,0.04938271604938272,167.40740740740742,0)" xlink:href="#W"/><use transform="matrix(0.04938271604938272,0,0,0.04938271604938272,177.28395061728395,0)" xlink:href="#M"/><use transform="matrix(0.04938271604938272,0,0,0.04938271604938272,181.1851851851852,0)" xlink:href="#N"/><use transform="matrix(0.04938271604938272,0,0,0.04938271604938272,191.06172839506172,0)" xlink:href="#V"/><use transform="matrix(0.04938271604938272,0,0,0.04938271604938272,196,0)" xlink:href="#ab"/><use transform="matrix(0.04938271604938272,0,0,0.04938271604938272,205.87654320987656,0)" xlink:href="#N"/><use transform="matrix(0.04938271604938272,0,0,0.04938271604938272,215.75308641975312,0)" xlink:href="#U"/><use transform="matrix(0.04938271604938272,0,0,0.04938271604938272,223.30864197530866,0)" xlink:href="#V"/><use transform="matrix(0.04938271604938272,0,0,0.04938271604938272,228.24691358024694,0)" xlink:href="#X"/><use transform="matrix(0.04938271604938272,0,0,0.04938271604938272,238.12345679012347,0)" xlink:href="#J"/><use transform="matrix(0.04938271604938272,0,0,0.04938271604938272,247.01234567901236,0)" xlink:href="#P"/><use transform="matrix(0.04938271604938272,0,0,0.04938271604938272,255.90123456790127,0)" xlink:href="#H"/><use transform="matrix(0.04938271604938272,0,0,0.04938271604938272,265.7777777777778,0)" xlink:href="#V"/><use transform="matrix(0.04938271604938272,0,0,0.04938271604938272,270.7160493827161,0)" xlink:href="#I"/><use transform="matrix(0.04938271604938272,0,0,0.04938271604938272,280.59259259259267,0)" xlink:href="#N"/><use transform="matrix(0.04938271604938272,0,0,0.04938271604938272,290.4691358024692,0)" xlink:href="#ac"/></g></defs></g></svg>